<svg width="56" height="56" viewBox="0 0 56 56" fill="none" xmlns="http://www.w3.org/2000/svg">
<rect width="48" height="48" rx="4" fill="#3663EF" fill-opacity="0.2"/>
<rect x="8" y="8" width="48" height="48" rx="4" fill="#3663EF"/>
<path d="M45.8525 18.3913C45.8411 18.336 45.8142 18.2852 45.7749 18.2446C45.7356 18.2041 45.6856 18.1757 45.6307 18.1626C41.97 17.2676 33.5119 20.4569 28.9294 25.0376C28.1121 25.8483 27.367 26.7287 26.7025 27.6688C25.2894 27.5438 23.8763 27.6482 22.6719 28.1732C19.2738 29.6688 18.2844 33.5713 18.0088 35.2501C17.9931 35.3419 17.999 35.4362 18.026 35.5254C18.053 35.6146 18.1003 35.6964 18.1642 35.7642C18.2281 35.8321 18.3069 35.8842 18.3943 35.9164C18.4818 35.9487 18.5755 35.9602 18.6682 35.9501L24.125 35.3482C24.1289 35.7596 24.1538 36.1705 24.1994 36.5794C24.2269 36.8634 24.3529 37.1287 24.5557 37.3294L26.6688 39.4376C26.8697 39.64 27.1349 39.766 27.4188 39.7938C27.8254 39.8393 28.234 39.8641 28.6432 39.8682L28.0444 45.3182C28.0344 45.4108 28.046 45.5045 28.0783 45.5919C28.1106 45.6793 28.1627 45.758 28.2305 45.8219C28.2983 45.8857 28.38 45.933 28.4692 45.9601C28.5583 45.9871 28.6525 45.9931 28.7444 45.9776C30.42 45.7088 34.3294 44.7194 35.8163 41.3213C36.3413 40.1169 36.4488 38.7107 36.3275 37.3044C37.2699 36.64 38.1526 35.8946 38.9657 35.0769C43.5625 30.5032 46.7338 22.2338 45.8525 18.3913ZM34.3794 29.6207C33.9597 29.2012 33.6737 28.6667 33.5578 28.0847C33.4419 27.5027 33.5012 26.8994 33.7282 26.3511C33.9552 25.8028 34.3397 25.3341 34.8331 25.0044C35.3265 24.6747 35.9066 24.4987 36.5 24.4987C37.0935 24.4987 37.6736 24.6747 38.1669 25.0044C38.6603 25.3341 39.0449 25.8028 39.2719 26.3511C39.4989 26.8994 39.5582 27.5027 39.4422 28.0847C39.3263 28.6667 39.0404 29.2012 38.6207 29.6207C38.3423 29.8994 38.0118 30.1206 37.6479 30.2714C37.284 30.4223 36.8939 30.5 36.5 30.5C36.1061 30.5 35.7161 30.4223 35.3522 30.2714C34.9883 30.1206 34.6577 29.8994 34.3794 29.6207Z" fill="white"/>
<path d="M26.525 40.9644C26.1825 41.3075 25.6331 41.4413 24.9719 41.5556C23.4862 41.8088 22.1744 40.525 22.4412 39.0231C22.5431 38.4538 22.8444 37.6556 23.0319 37.4681C23.0729 37.4279 23.1001 37.3759 23.1098 37.3193C23.1195 37.2627 23.1112 37.2045 23.0859 37.153C23.0607 37.1014 23.0198 37.0591 22.9691 37.0321C22.9185 37.0051 22.8606 36.9948 22.8038 37.0025C21.973 37.1042 21.2001 37.4808 20.6081 38.0725C19.1388 39.5431 19 45 19 45C19 45 24.46 44.8613 25.9294 43.3906C26.5229 42.7992 26.9 42.0251 27 41.1931C27.0231 40.9319 26.705 40.7763 26.525 40.9644Z" fill="white"/>
</svg>
