<svg width="56" height="56" viewBox="0 0 56 56" fill="none" xmlns="http://www.w3.org/2000/svg">
<rect width="48" height="48" rx="4" fill="#3663EF" fill-opacity="0.2"/>
<rect x="8" y="8" width="48" height="48" rx="4" fill="#3663EF"/>
<path d="M21.3368 30.0391C21.5359 29.4292 21.9001 28.887 22.3886 28.4733C22.877 28.0595 23.4705 27.7906 24.1025 27.6966L27.3482 27.2258L26.1025 27.042L24.4339 23.6431C24.2396 23.2526 23.8396 23 23.4053 23C22.971 23 22.571 23.2526 22.3768 23.6431L20.7082 27.042L16.9824 27.5932C16.7715 27.6227 16.5729 27.711 16.4094 27.8481C16.2459 27.9853 16.1238 28.1657 16.0572 28.369C15.9906 28.5722 15.982 28.7902 16.0324 28.9981C16.0828 29.2061 16.1902 29.3956 16.3424 29.5453L19.051 32.1979L18.411 35.9299C18.331 36.3548 18.5139 36.7912 18.8567 37.0553C19.2282 37.3056 19.6762 37.3492 20.0682 37.1356L23.4053 35.3787L24.6053 36.0103L24.6168 35.9414L22.2053 33.5759C21.7472 33.1261 21.4231 32.5567 21.2697 31.9318C21.1162 31.3069 21.1394 30.6514 21.3368 30.0391ZM47.9427 28.3741C47.8768 28.1698 47.7551 27.9882 47.5914 27.8502C47.4277 27.7121 47.2286 27.623 47.017 27.5932L43.2912 27.042L41.6226 23.6431C41.2341 22.8622 39.954 22.8622 39.5655 23.6431L37.8969 27.042L36.6512 27.2258L39.8969 27.6966C41.1883 27.8918 42.2626 28.7989 42.6626 30.0391C42.8599 30.6514 42.8832 31.3069 42.7297 31.9318C42.5763 32.5567 42.2522 33.1261 41.7941 33.5759L39.3826 35.9414L39.394 36.0103L40.594 35.3787L43.9312 37.1356C44.3232 37.3492 44.7712 37.3056 45.1427 37.0553C45.4855 36.7912 45.6684 36.3548 45.5884 35.9299L44.9484 32.1979L47.657 29.5453C47.9655 29.2468 48.0798 28.7875 47.9427 28.3741Z" fill="white"/>
<path d="M36.9282 35.1351L40.2002 31.9314C40.353 31.7818 40.4611 31.5922 40.5122 31.384C40.5634 31.1759 40.5555 30.9575 40.4895 30.7537C40.4235 30.5498 40.302 30.3686 40.1387 30.2305C39.9755 30.0924 39.7771 30.003 39.5659 29.9724L35.0459 29.3132L33.0241 25.1977C32.6413 24.4146 31.359 24.4146 30.9761 25.1977L28.9544 29.3132L24.4344 29.9724C24.2234 30.0034 24.0253 30.093 23.8624 30.2311C23.6994 30.3693 23.5781 30.5504 23.5122 30.7541C23.4462 30.9578 23.4382 31.176 23.4891 31.384C23.54 31.592 23.6477 31.7816 23.8001 31.9314L27.071 35.1351L26.2995 39.6583C26.2637 39.8693 26.2872 40.0862 26.3676 40.2845C26.4479 40.4828 26.5818 40.6546 26.7541 40.7804C26.9265 40.9063 27.1304 40.9813 27.3429 40.9968C27.5554 41.0124 27.768 40.968 27.9567 40.8686L32.0001 38.7316L36.0425 40.8675C36.2313 40.9663 36.4438 41.0102 36.6561 40.9944C36.8684 40.9785 37.0721 40.9035 37.2443 40.7778C37.4165 40.6521 37.5505 40.4807 37.6311 40.2827C37.7117 40.0848 37.7359 39.8681 37.7008 39.6572L36.9282 35.1351Z" fill="white"/>
</svg>
