<svg width="56" height="56" viewBox="0 0 56 56" fill="none" xmlns="http://www.w3.org/2000/svg">
<rect width="48" height="48" rx="4" fill="#3663EF" fill-opacity="0.2"/>
<rect x="8" y="8" width="48" height="48" rx="4" fill="#3663EF"/>
<g clip-path="url(#clip0_27_73666)">
<path d="M36.6875 25.0162C35.2943 24.0781 33.6899 23.5625 32 23.5625C27.3473 23.5625 23.5625 27.3473 23.5625 32C23.5625 36.6527 27.3473 40.4375 32 40.4375C36.6527 40.4375 40.4375 36.6527 40.4375 32C40.4375 30.3101 39.9219 28.7057 38.9837 27.3125H38.0132L35.9066 29.4191C36.3979 30.1602 36.6875 31.0462 36.6875 32C36.6875 34.5846 34.5846 36.6875 32 36.6875C29.4154 36.6875 27.3125 34.5846 27.3125 32C27.3125 29.4154 29.4154 27.3125 32 27.3125C32.9537 27.3125 33.8398 27.6021 34.5809 28.0934L36.6875 25.9868V25.0162Z" fill="white"/>
<path d="M32 29.1875C30.4491 29.1875 29.1875 30.4491 29.1875 32C29.1875 33.5509 30.4491 34.8125 32 34.8125C33.5509 34.8125 34.8125 33.5509 34.8125 32C34.8125 31.5671 34.7061 31.1617 34.5306 30.7951L32.6628 32.6629L31.3371 31.3372L33.2049 29.4694C32.8382 29.2939 32.4329 29.1875 32 29.1875Z" fill="white"/>
<path d="M32 48C40.7881 48 48 40.7881 48 32C48 29.0742 47.1191 26.2954 45.6348 23.8291L42.1514 27.3125H41.1772C41.9192 28.7555 42.3125 30.3467 42.3125 32C42.3125 37.6863 37.6863 42.3125 32 42.3125C26.3137 42.3125 21.6875 37.6863 21.6875 32C21.6875 26.3137 26.3137 21.6875 32 21.6875C33.6533 21.6875 35.2445 22.0808 36.6875 22.8228V21.8486L40.1709 18.3653C37.7046 16.8809 34.9258 16 32 16C23.2119 16 16 23.2119 16 32C16 40.7881 23.2119 48 32 48Z" fill="white"/>
<path d="M47.9375 18.875H45.125V16.0625L38.5625 22.625V25.4375H41.375L47.9375 18.875Z" fill="white"/>
</g>
<defs>
<clipPath id="clip0_27_73666">
<rect width="32" height="32" fill="white" transform="translate(16 16)"/>
</clipPath>
</defs>
</svg>
