<svg width="14" height="80" viewBox="0 0 14 80" fill="none" xmlns="http://www.w3.org/2000/svg">
<path d="M7.35356 79.3536C7.15829 79.5488 6.84171 79.5488 6.64645 79.3536L3.46447 76.1716C3.26921 75.9763 3.26921 75.6597 3.46447 75.4645C3.65973 75.2692 3.97631 75.2692 4.17158 75.4645L7 78.2929L9.82843 75.4645C10.0237 75.2692 10.3403 75.2692 10.5355 75.4645C10.7308 75.6597 10.7308 75.9763 10.5355 76.1716L7.35356 79.3536ZM7.5 6L7.5 79L6.5 79L6.5 6L7.5 6Z" fill="#3663EF"/>
<circle cx="7" cy="7" r="7" transform="matrix(-1 0 0 1 14 0)" fill="#3663EF"/>
</svg>
