<svg width="80" height="15" viewBox="0 0 80 15" fill="none" xmlns="http://www.w3.org/2000/svg">
<path d="M0.646446 7.85356C0.451187 7.65829 0.451187 7.34171 0.646446 7.14645L3.82843 3.96447C4.02369 3.76921 4.34027 3.76921 4.53554 3.96447C4.7308 4.15973 4.7308 4.47631 4.53554 4.67158L1.70711 7.5L4.53554 10.3284C4.7308 10.5237 4.7308 10.8403 4.53554 11.0355C4.34027 11.2308 4.02369 11.2308 3.82843 11.0355L0.646446 7.85356ZM74 8L1 8L1 7L74 7L74 8Z" fill="#3663EF"/>
<circle cx="7" cy="7" r="7" transform="matrix(0 -1 -1 0 80 14.5)" fill="#3663EF"/>
</svg>
