<svg width="1920" height="650" viewBox="0 0 1920 650" fill="none" xmlns="http://www.w3.org/2000/svg">
<g clip-path="url(#clip0_27_50360)">
<rect width="1920" height="650" fill="#292929"/>
<g opacity="0.2">
<line x1="35.5384" y1="-132" x2="35.5383" y2="1302" stroke="#F9F9F9"/>
<line x1="126.757" y1="-132" x2="126.757" y2="1302" stroke="#F9F9F9"/>
<line x1="217.977" y1="-132" x2="217.977" y2="1302" stroke="#F9F9F9"/>
<line x1="309.196" y1="-132" x2="309.196" y2="1302" stroke="#F9F9F9"/>
<line x1="400.415" y1="-132" x2="400.415" y2="1302" stroke="#F9F9F9"/>
<line x1="491.634" y1="-132" x2="491.634" y2="1302" stroke="#F9F9F9"/>
<line x1="582.853" y1="-132" x2="582.853" y2="1302" stroke="#F9F9F9"/>
<line x1="674.072" y1="-132" x2="674.072" y2="1302" stroke="#F9F9F9"/>
<line x1="765.291" y1="-132" x2="765.291" y2="1302" stroke="#F9F9F9"/>
<line x1="856.51" y1="-132" x2="856.51" y2="1302" stroke="#F9F9F9"/>
<line x1="947.729" y1="-132" x2="947.729" y2="1302" stroke="#F9F9F9"/>
<line x1="1038.95" y1="-132" x2="1038.95" y2="1302" stroke="#F9F9F9"/>
<line x1="1130.17" y1="-132" x2="1130.17" y2="1302" stroke="#F9F9F9"/>
<line x1="1221.39" y1="-132" x2="1221.39" y2="1302" stroke="#F9F9F9"/>
<line x1="1312.61" y1="-132" x2="1312.61" y2="1302" stroke="#F9F9F9"/>
<line x1="1403.82" y1="-132" x2="1403.82" y2="1302" stroke="#F9F9F9"/>
<line x1="1495.04" y1="-132" x2="1495.04" y2="1302" stroke="#F9F9F9"/>
<line x1="1586.26" y1="-132" x2="1586.26" y2="1302" stroke="#F9F9F9"/>
<line x1="1677.48" y1="-132" x2="1677.48" y2="1302" stroke="#F9F9F9"/>
<line x1="1768.7" y1="-132" x2="1768.7" y2="1302" stroke="#F9F9F9"/>
<line x1="1859.92" y1="-132" x2="1859.92" y2="1302" stroke="#F9F9F9"/>
<line x1="-110" y1="587.237" x2="2030" y2="587.237" stroke="#F9F9F9"/>
<line x1="-110" y1="496.015" x2="2030" y2="496.015" stroke="#F9F9F9"/>
<line x1="-110" y1="404.794" x2="2030" y2="404.794" stroke="#F9F9F9"/>
<line x1="-110" y1="313.572" x2="2030" y2="313.572" stroke="#F9F9F9"/>
<line x1="-110" y1="222.351" x2="2030" y2="222.351" stroke="#F9F9F9"/>
<line x1="-110" y1="131.13" x2="2030" y2="131.13" stroke="#F9F9F9"/>
<line x1="-110" y1="39.9082" x2="2030" y2="39.9083" stroke="#F9F9F9"/>
<circle cx="4" cy="4" r="3.5" transform="matrix(-1 0 0 1 131 36)" fill="#292929" stroke="#F9F9F9"/>
<circle cx="4" cy="4" r="3.5" transform="matrix(-1 0 0 1 222 309)" fill="#292929" stroke="#F9F9F9"/>
<circle cx="4" cy="4" r="3.5" transform="matrix(-1 0 0 1 130 584)" fill="#292929" stroke="#F9F9F9"/>
<circle cx="4" cy="4" r="3.5" transform="matrix(-1 0 0 1 404 401)" fill="#292929" stroke="#F9F9F9"/>
<circle cx="4" cy="4" r="3.5" transform="matrix(-1 0 0 1 313 128)" fill="#292929" stroke="#F9F9F9"/>
<circle cx="4" cy="4" r="3.5" transform="matrix(-1 0 0 1 586 36)" fill="#292929" stroke="#F9F9F9"/>
<circle cx="4" cy="4" r="3.5" transform="matrix(-1 0 0 1 586 493)" fill="#292929" stroke="#F9F9F9"/>
<circle cx="4" cy="4" r="3.5" transform="matrix(-1 0 0 1 495 219)" fill="#292929" stroke="#F9F9F9"/>
<circle cx="4" cy="4" r="3.5" transform="matrix(-1 0 0 1 769 126)" fill="#292929" stroke="#F9F9F9"/>
<circle cx="4" cy="4" r="3.5" transform="matrix(-1 0 0 1 860 401)" fill="#292929" stroke="#F9F9F9"/>
<circle cx="4" cy="4" r="3.5" transform="matrix(-1 0 0 1 769 584)" fill="#292929" stroke="#F9F9F9"/>
<circle cx="4" cy="4" r="3.5" transform="matrix(-1 0 0 1 1043 492)" fill="#292929" stroke="#F9F9F9"/>
<circle cx="4" cy="4" r="3.5" transform="matrix(-1 0 0 1 1134 310)" fill="#292929" stroke="#F9F9F9"/>
<circle cx="4" cy="4" r="3.5" transform="matrix(-1 0 0 1 952 218)" fill="#292929" stroke="#F9F9F9"/>
<circle cx="4" cy="4" r="3.5" transform="matrix(-1 0 0 1 1316 128)" fill="#292929" stroke="#F9F9F9"/>
<circle cx="4" cy="4" r="3.5" transform="matrix(-1 0 0 1 1225 584)" fill="#292929" stroke="#F9F9F9"/>
<circle cx="4" cy="4" r="3.5" transform="matrix(-1 0 0 1 1408 401)" fill="#292929" stroke="#F9F9F9"/>
<circle cx="4" cy="4" r="3.5" transform="matrix(-1 0 0 1 1773 219)" fill="#292929" stroke="#F9F9F9"/>
<circle cx="4" cy="4" r="3.5" transform="matrix(-1 0 0 1 1864 492)" fill="#292929" stroke="#F9F9F9"/>
<circle cx="4" cy="4" r="3.5" transform="matrix(-1 0 0 1 1590 36)" fill="#292929" stroke="#F9F9F9"/>
</g>
</g>
<defs>
<clipPath id="clip0_27_50360">
<rect width="1920" height="650" fill="white"/>
</clipPath>
</defs>
</svg>
