<svg width="56" height="56" viewBox="0 0 56 56" fill="none" xmlns="http://www.w3.org/2000/svg">
<rect width="48" height="48" rx="4" fill="#3663EF" fill-opacity="0.2"/>
<rect x="8" y="8" width="48" height="48" rx="4" fill="#3663EF"/>
<path d="M28.5 21.5H30.25V30.515C30.6911 29.6412 31.2681 28.843 31.9595 28.15L33.75 26.361V21.5H35.5C35.596 21.5 35.6901 21.4723 35.7708 21.4202C35.8516 21.3682 35.9156 21.2939 35.9553 21.2064C35.9949 21.1189 36.0086 21.0218 35.9945 20.9268C35.9804 20.8317 35.9393 20.7428 35.8759 20.6705L32.3759 16.6705C32.329 16.6168 32.2711 16.5738 32.2062 16.5443C32.1413 16.5148 32.0708 16.4995 31.9995 16.4995C31.9281 16.4995 31.8576 16.5148 31.7927 16.5443C31.7278 16.5738 31.6699 16.6168 31.623 16.6705L28.123 20.6705C28.0596 20.7428 28.0184 20.8319 28.0044 20.927C27.9903 21.0222 28.004 21.1193 28.0438 21.2069C28.0836 21.2944 28.1478 21.3686 28.2287 21.4206C28.3096 21.4726 28.4038 21.5002 28.5 21.5ZM42.9664 20.5L37.6635 20.8535C37.5676 20.8598 37.4756 20.8937 37.3984 20.951C37.3213 21.0082 37.2623 21.0865 37.2284 21.1765C37.1946 21.2664 37.1875 21.3642 37.2078 21.4581C37.2281 21.552 37.275 21.6381 37.343 21.706L38.5805 22.9435L32.6665 28.859C31.6237 29.8996 30.8809 31.2022 30.5165 32.6295L32.0405 34.15C32.7318 34.843 33.3088 35.6412 33.75 36.515V34.6925C33.7483 34.0685 33.8704 33.4503 34.1091 32.8737C34.3479 32.2972 34.6986 31.7737 35.141 31.3335L41.0555 25.4195L42.2929 26.657C42.361 26.7242 42.4469 26.7704 42.5404 26.7903C42.6339 26.8101 42.7311 26.8027 42.8206 26.769C42.9101 26.7353 42.988 26.6766 43.0451 26.6C43.1022 26.5233 43.1362 26.4319 43.143 26.3365L43.5 21.033C43.5048 20.9617 43.4944 20.8902 43.4693 20.8233C43.4442 20.7564 43.4051 20.6956 43.3545 20.6451C43.304 20.5946 43.2432 20.5555 43.1762 20.5305C43.1093 20.5054 43.0377 20.495 42.9664 20.5ZM25.4195 28.9445L26.6569 27.707C26.7249 27.6391 26.7718 27.553 26.7921 27.4591C26.8124 27.3652 26.8053 27.2674 26.7715 27.1775C26.7376 27.0875 26.6786 27.0092 26.6015 26.952C26.5243 26.8947 26.4323 26.8608 26.3365 26.8545L21.0335 26.5C20.9622 26.495 20.8906 26.5054 20.8237 26.5305C20.7567 26.5555 20.6959 26.5946 20.6454 26.6451C20.5948 26.6956 20.5557 26.7564 20.5306 26.8233C20.5055 26.8902 20.4951 26.9617 20.5 27.033L20.8535 32.3365C20.8598 32.4324 20.8936 32.5244 20.9509 32.6015C21.0082 32.6787 21.0865 32.7377 21.1764 32.7715C21.2663 32.8053 21.3641 32.8125 21.458 32.7922C21.5519 32.7719 21.638 32.7249 21.706 32.657L22.9435 31.4195L28.859 37.3335C29.3013 37.7737 29.652 38.2972 29.8908 38.8737C30.1295 39.4503 30.2516 40.0685 30.25 40.6925V47C30.25 47.1326 30.3026 47.2598 30.3964 47.3536C30.4902 47.4473 30.6173 47.5 30.75 47.5H33.25C33.3826 47.5 33.5097 47.4473 33.6035 47.3536C33.6973 47.2598 33.75 47.1326 33.75 47V40.6925C33.753 39.6086 33.541 38.535 33.1262 37.5336C32.7114 36.5323 32.1021 35.6232 31.3335 34.859L25.4195 28.9445Z" fill="white"/>
</svg>
