<svg width="56" height="56" viewBox="0 0 56 56" fill="none" xmlns="http://www.w3.org/2000/svg">
<rect width="48" height="48" rx="4" fill="#3663EF" fill-opacity="0.2"/>
<rect x="8" y="8" width="48" height="48" rx="4" fill="#3663EF"/>
<g clip-path="url(#clip0_27_73640)">
<path d="M39.1243 22.6788L36.2543 17.8295C36.1865 17.7154 36.0965 17.6158 35.9895 17.5362C35.8825 17.4566 35.7606 17.3986 35.6308 17.3657C35.501 17.3327 35.3659 17.3254 35.2333 17.3441C35.1006 17.3628 34.973 17.4073 34.8578 17.4748L26.0843 22.6668L39.1243 22.6788Z" fill="white"/>
<path d="M19.8333 24.0003C19.0898 24.0003 18.4815 23.4003 18.4815 22.667C18.4815 21.9337 19.0898 21.3337 19.8333 21.3337H24.3891L28.9043 18.667H19.8333C17.8326 18.667 16.1698 20.107 15.8454 22.0003C15.8183 22.107 15.7778 22.2137 15.7778 22.3337V42.667C15.7778 44.867 17.6028 46.667 19.8333 46.667H42.8148C44.3018 46.667 45.5185 45.467 45.5185 44.0003V41.3337H42.1389C38.7863 41.3337 36.0555 38.6403 36.0555 35.3337C36.0555 32.027 38.7863 29.3337 42.1389 29.3337H45.5185V26.667C45.5185 25.2003 44.3018 24.0003 42.8148 24.0003H19.8333ZM41.463 21.3337C41.463 19.987 40.4491 18.867 39.1243 18.6937L41.463 22.667V21.3337Z" fill="white"/>
<path d="M47.2083 31.3335H42.1389C39.9029 31.3335 38.0833 33.1282 38.0833 35.3335C38.0833 37.5388 39.9029 39.3335 42.1389 39.3335H47.2083C47.4772 39.3335 47.7351 39.2281 47.9252 39.0406C48.1154 38.8531 48.2222 38.5987 48.2222 38.3335V32.3335C48.2222 32.0683 48.1154 31.8139 47.9252 31.6264C47.7351 31.4389 47.4772 31.3335 47.2083 31.3335ZM42.1389 36.6668C41.7803 36.6668 41.4365 36.5264 41.183 36.2763C40.9294 36.0263 40.787 35.6871 40.787 35.3335C40.787 34.9799 40.9294 34.6407 41.183 34.3907C41.4365 34.1406 41.7803 34.0002 42.1389 34.0002C42.4974 34.0002 42.8413 34.1406 43.0948 34.3907C43.3483 34.6407 43.4907 34.9799 43.4907 35.3335C43.4907 35.6871 43.3483 36.0263 43.0948 36.2763C42.8413 36.5264 42.4974 36.6668 42.1389 36.6668Z" fill="white"/>
</g>
<defs>
<clipPath id="clip0_27_73640">
<rect width="32.4444" height="32" fill="white" transform="translate(15.7778 16)"/>
</clipPath>
</defs>
</svg>
