<svg width="56" height="56" viewBox="0 0 56 56" fill="none" xmlns="http://www.w3.org/2000/svg">
<rect width="48" height="48" rx="4" fill="#3663EF" fill-opacity="0.2"/>
<rect x="8" y="8" width="48" height="48" rx="4" fill="#3663EF"/>
<path d="M38.625 19.7976V17.875H40.5V16H34.875V17.875H36.75V19.7976C31.5019 20.2734 27.375 24.6926 27.375 30.0625C27.375 35.7488 32.0012 40.375 37.6875 40.375C43.3738 40.375 48 35.7488 48 30.0625C48 24.6926 43.8731 20.2732 38.625 19.7976ZM44.25 31H36.75V23.5H38.625V29.125H44.25V31ZM16 29.125H23.5625V31H16V29.125ZM17.875 23.5H25.5V25.375H17.875V23.5ZM17.875 34.75H25.5V36.625H17.875V34.75Z" fill="white"/>
</svg>
