<svg width="56" height="56" viewBox="0 0 56 56" fill="none" xmlns="http://www.w3.org/2000/svg">
<rect width="48" height="48" rx="4" fill="#3663EF" fill-opacity="0.2"/>
<rect x="8" y="8" width="48" height="48" rx="4" fill="#3663EF"/>
<path d="M45.815 32.3298C45.5412 31.2881 44.9633 30.3516 44.155 29.6398C44.2359 29.5326 44.3079 29.4189 44.37 29.2998C45.225 27.6548 43.935 25.4198 42.195 24.2098C41.154 23.5172 39.944 23.1213 38.695 23.0648C38.195 20.3048 35.395 18.5648 33.695 18.2898C28.85 17.0748 26.55 21.2148 26 22.3598C20.395 23.0498 20 28.4998 19.97 29.9598C16.415 31.9398 18 36.9248 21.88 37.0648H27.195V39.8048C27.1957 39.8748 27.1824 39.9442 27.1561 40.0091C27.1298 40.074 27.0908 40.133 27.0415 40.1828C26.9923 40.2325 26.9336 40.272 26.869 40.299C26.8044 40.3259 26.735 40.3398 26.665 40.3398H25C24.8786 39.8848 24.596 39.4896 24.2047 39.2276C23.8134 38.9657 23.3403 38.855 22.8734 38.9162C22.4065 38.9774 21.9779 39.2063 21.6673 39.5602C21.3568 39.9141 21.1855 40.3689 21.1855 40.8398C21.1855 41.3106 21.3568 41.7654 21.6673 42.1193C21.9779 42.4732 22.4065 42.7021 22.8734 42.7633C23.3403 42.8245 23.8134 42.7138 24.2047 42.4519C24.596 42.19 24.8786 41.7947 25 41.3398H26.67C27.0762 41.3384 27.4654 41.1761 27.7522 40.8884C28.039 40.6007 28.2 40.211 28.2 39.8048V37.0648H31.5V42.1098C31.0437 42.2312 30.6471 42.5144 30.3843 42.9066C30.1214 43.2989 30.0102 43.7733 30.0714 44.2415C30.1326 44.7097 30.362 45.1397 30.7169 45.4512C31.0718 45.7626 31.5278 45.9344 32 45.9344C32.4722 45.9344 32.9282 45.7626 33.2831 45.4512C33.6379 45.1397 33.8674 44.7097 33.9286 44.2415C33.9898 43.7733 33.8786 43.2989 33.6157 42.9066C33.3529 42.5144 32.9563 42.2312 32.5 42.1098V37.0648H35.63V39.7748C35.6293 39.9761 35.6684 40.1756 35.745 40.3618C35.8216 40.548 35.9342 40.7173 36.0764 40.8599C36.2185 41.0025 36.3874 41.1156 36.5733 41.1928C36.7593 41.27 36.9587 41.3098 37.16 41.3098H38.83C38.9514 41.7661 39.2346 42.1627 39.6269 42.4255C40.0191 42.6884 40.4936 42.7996 40.9618 42.7384C41.43 42.6772 41.8599 42.4477 42.1714 42.0929C42.4829 41.738 42.6546 41.2819 42.6546 40.8098C42.6546 40.3376 42.4829 39.8815 42.1714 39.5267C41.8599 39.1718 41.43 38.9424 40.9618 38.8812C40.4936 38.82 40.0191 38.9312 39.6269 39.194C39.2346 39.4569 38.9514 39.8535 38.83 40.3098H37.16C37.09 40.3098 37.0206 40.2959 36.956 40.269C36.8914 40.242 36.8327 40.2025 36.7835 40.1528C36.7342 40.103 36.6952 40.044 36.6689 39.9791C36.6426 39.9142 36.6293 39.8448 36.63 39.7748V37.0648H42.445C45.365 36.9698 46.5 34.4298 45.815 32.3298Z" fill="white"/>
</svg>
