<svg width="56" height="56" viewBox="0 0 56 56" fill="none" xmlns="http://www.w3.org/2000/svg">
<rect width="48" height="48" rx="4" fill="#3663EF" fill-opacity="0.2"/>
<rect x="8" y="8" width="48" height="48" rx="4" fill="#3663EF"/>
<path d="M29.3333 24.3998C27.4666 21.3332 25.3333 18.6665 25.3333 18.6665C25.3333 18.6665 18.6666 26.9332 18.6666 30.6665C18.6666 33.8665 20.9333 36.6665 24 37.1998V36.2665C24 33.0665 26.6666 28.2665 29.3333 24.3998ZM36 19.9998C36 19.9998 26.6666 31.3332 26.6666 36.2665C26.6666 41.1998 30.8 45.3332 36 45.3332C41.2 45.3332 45.3333 41.3332 45.3333 36.2665C45.3333 31.1998 36 19.9998 36 19.9998ZM42.5333 37.7332C42.5333 38.1332 42.2666 38.5332 42.1333 38.9332C41.8666 39.1998 41.7333 39.5998 41.4666 39.8665C41.2 40.1332 40.9333 40.3998 40.6666 40.5332C40.1333 40.9332 39.4666 41.0665 39.0666 41.1998C38.5333 41.3332 38.1333 41.1998 37.8666 41.1998C37.6 41.1998 37.4666 41.0665 37.4666 41.0665L38.4 40.1332C41.6 37.4665 41.0666 33.1998 41.0666 33.1998C41.0666 33.1998 41.2 33.3332 41.4666 33.4665C41.7333 33.7332 42 33.9998 42.2666 34.5332C42.5333 35.0665 42.8 35.7332 42.8 36.3998C42.6666 36.9332 42.6666 37.3332 42.5333 37.7332Z" fill="white"/>
</svg>
