<svg width="56" height="56" viewBox="0 0 56 56" fill="none" xmlns="http://www.w3.org/2000/svg">
<rect width="48" height="48" rx="4" fill="#3663EF" fill-opacity="0.2"/>
<rect x="8" y="8" width="48" height="48" rx="4" fill="#3663EF"/>
<path d="M37.0924 32.9806C35.7292 33.2836 33.9207 33.4504 32 33.4504C30.0792 33.4504 28.2707 33.2836 26.9075 32.9806C26.2308 32.8303 25.6953 32.653 25.316 32.4537C25.257 32.4228 25.1992 32.3895 25.1428 32.354V34.3735C25.1428 34.527 25.5356 34.9047 27.022 35.235C28.3487 35.5298 30.1166 35.6922 32 35.6922C33.8833 35.6922 35.6512 35.5298 36.978 35.235C38.4644 34.9047 38.8571 34.527 38.8571 34.3735V32.354C38.8007 32.3895 38.7429 32.4228 38.6839 32.4537C38.3046 32.653 37.7692 32.8303 37.0924 32.9806Z" fill="white"/>
<path d="M37.0924 35.7499C35.7292 36.0529 33.9207 36.2197 32 36.2197C30.0792 36.2197 28.2707 36.0529 26.9075 35.7499C26.2308 35.5996 25.6953 35.4223 25.316 35.223C25.257 35.1921 25.1992 35.1588 25.1428 35.1233V37.1428C25.1428 37.2963 25.5356 37.674 27.022 38.0043C28.3487 38.2991 30.1166 38.4615 32 38.4615C33.8833 38.4615 35.6512 38.2991 36.978 38.0043C38.4644 37.674 38.8571 37.2963 38.8571 37.1428V35.1233C38.8007 35.1588 38.7429 35.1921 38.6839 35.223C38.3046 35.4223 37.7692 35.5996 37.0924 35.7499ZM37.0924 41.2884C35.7292 41.5913 33.9207 41.7582 32 41.7582C30.0792 41.7582 28.2707 41.5913 26.9075 41.2884C26.2308 41.138 25.6953 40.9607 25.316 40.7614C25.257 40.7305 25.1992 40.6973 25.1428 40.6618V42.6813C25.1428 42.8348 25.5356 43.2124 27.022 43.5427C28.3487 43.8376 30.1166 43.9999 32 43.9999C33.8834 43.9999 35.6512 43.8376 36.978 43.5427C38.4644 43.2124 38.8571 42.8348 38.8571 42.6813V40.6618C38.8007 40.6973 38.7429 40.7305 38.6839 40.7614C38.3046 40.9607 37.7692 41.138 37.0924 41.2884ZM36.978 30.7428C35.6512 30.448 33.8833 30.2856 32 30.2856C30.1166 30.2856 28.3487 30.448 27.022 30.7428C25.5356 31.0732 25.1428 31.4508 25.1428 31.6043C25.1428 31.7579 25.5356 32.1355 27.022 32.4658C28.3487 32.7606 30.1166 32.923 32 32.923C33.8833 32.923 35.6512 32.7606 36.978 32.4658C38.4644 32.1355 38.8571 31.7579 38.8571 31.6043C38.8571 31.4508 38.4644 31.0731 36.978 30.7428Z" fill="white"/>
<path d="M37.0924 38.5193C35.7292 38.8222 33.9207 38.989 32 38.989C30.0793 38.989 28.2708 38.8222 26.9076 38.5193C26.2308 38.3689 25.6953 38.1916 25.316 37.9923C25.257 37.9614 25.1992 37.9281 25.1429 37.8926V39.9121C25.1429 40.0656 25.5356 40.4433 27.022 40.7736C28.3487 41.0684 30.1166 41.2308 32 41.2308C33.8834 41.2308 35.6513 41.0684 36.978 40.7736C38.4644 40.4433 38.8571 40.0656 38.8571 39.9121V37.8926C38.8008 37.9281 38.743 37.9614 38.684 37.9923C38.3046 38.1916 37.7692 38.3689 37.0924 38.5193ZM41.7581 26.23C41.7155 26.2118 41.6784 26.1827 41.6507 26.1456C41.6229 26.1085 41.6054 26.0648 41.5999 26.0188C41.3785 24.1662 39.8025 22.7692 37.9341 22.7692C37.6407 22.7692 37.3483 22.8039 37.0631 22.8728C37.017 22.8839 36.9687 22.8824 36.9234 22.8685C36.8781 22.8545 36.8374 22.8286 36.8055 22.7934C35.8816 21.7724 34.5626 21.1868 33.1868 21.1868C32.9416 21.1868 32.6967 21.2051 32.4542 21.2416C32.4198 21.2467 32.3847 21.2451 32.351 21.2366C32.3173 21.2282 32.2856 21.2132 32.2577 21.1925C31.2068 20.4124 29.9576 20 28.6453 20C25.3774 20 22.657 22.6566 22.5811 25.9221C22.5799 25.9749 22.5628 26.0261 22.5321 26.0691C22.5015 26.1121 22.4586 26.1449 22.4091 26.1632C20.9681 26.6973 20 28.0891 20 29.6264C20 31.6623 21.6564 33.3187 23.6923 33.3187H24.6154V31.6044C24.6154 31.285 24.8511 30.9992 25.316 30.755C25.6954 30.5557 26.2308 30.3784 26.9076 30.228C28.2708 29.9251 30.0793 29.7583 32 29.7583C33.9207 29.7583 35.7292 29.9251 37.0924 30.228C37.7692 30.3784 38.3046 30.5557 38.684 30.755C39.1489 30.9992 39.3846 31.285 39.3846 31.6044V33.3187H40.3077C42.3436 33.3187 44 31.6623 44 29.6264C44.0006 28.9028 43.7883 28.195 43.3897 27.5911C42.9911 26.9872 42.4237 26.5138 41.7581 26.23ZM28.8352 21.5824C26.363 21.5824 24.3517 23.5937 24.3517 26.0659C24.3517 26.2116 24.2336 26.3297 24.0879 26.3297C23.9423 26.3297 23.8242 26.2116 23.8242 26.0659C23.8242 24.7275 24.3454 23.4691 25.2919 22.5226C26.2383 21.5762 27.4967 21.055 28.8352 21.055C28.9808 21.055 29.0989 21.173 29.0989 21.3187C29.0989 21.4643 28.9808 21.5824 28.8352 21.5824Z" fill="white"/>
</svg>
