<svg width="56" height="56" viewBox="0 0 56 56" fill="none" xmlns="http://www.w3.org/2000/svg">
<rect width="48" height="48" rx="4" fill="#3663EF" fill-opacity="0.2"/>
<rect x="8" y="8" width="48" height="48" rx="4" fill="#3663EF"/>
<g clip-path="url(#clip0_27_73792)">
<path d="M47.9335 32C47.9335 32.2426 47.9258 32.4826 47.9149 32.7227C48.0487 31.5301 48.034 30.3561 47.8055 29.1578C47.7095 28.8064 47.6141 28.4549 47.518 28.1042C47.55 27.9448 47.454 27.6573 47.2947 27.2739C47.1353 26.7951 47.0072 26.2836 46.7838 25.8048C46.209 24.4957 45.4747 23.2501 44.5805 22.1324C43.7183 21.0788 42.76 20.1205 41.6744 19.3222C41.6302 19.2864 41.5828 19.2576 41.538 19.2224C45.4203 22.1363 47.9335 26.7766 47.9335 32ZM27.6305 17.333C27.6176 17.3368 27.605 17.3416 27.5928 17.3474C27.6018 17.3474 27.615 17.3419 27.6305 17.333ZM47.0712 32.032C47.0392 32.064 47.0392 32.128 47.0392 32.16C47.1032 32.128 47.1032 32.096 47.0712 32.032ZM29.9228 32.096C29.9316 32.0877 29.9298 32.0849 29.9299 32.081V32.08C29.9293 32.0762 29.9254 32.0707 29.9239 32.0665L29.9229 32.0659L29.9228 32.096ZM46.9758 33.8205C46.9758 33.9485 46.9758 34.2673 47.0398 34.3633C47.0712 33.9159 47.0398 33.4371 47.0078 32.9583C46.9758 33.2137 46.9758 33.5651 46.9758 33.8205ZM29.4126 20.1224C29.4115 20.1213 29.4115 20.1194 29.4111 20.1179C29.4102 20.1189 29.4106 20.1204 29.4126 20.1224Z" fill="white"/>
<path d="M47.2632 28.0714C47.1992 27.784 47.1038 27.4966 47.0398 27.2411C46.6243 26.1555 45.6347 24.495 45.5707 24.527C45.4747 24.591 46.3049 25.8361 46.3689 25.9961C46.4009 26.0921 46.4009 26.0601 46.3689 26.0281C46.6884 26.7303 47.0078 27.4332 47.2632 28.1354L47.2632 28.0714ZM24.8459 22.6117V22.6316C24.8523 22.6137 24.8548 22.6022 24.8459 22.6117ZM29.8914 20.5038C29.9554 20.4398 29.8594 20.5038 29.8274 20.5038C29.7954 20.5678 29.8594 20.5358 29.8914 20.5038ZM27.8795 21.0146C27.8475 20.9506 27.8155 20.9506 27.7515 20.9826C27.7195 21.0146 27.8155 20.9826 27.8795 21.0146ZM38.8123 18.4503C38.8082 18.4431 38.8041 18.4366 38.8001 18.4285C38.7967 18.4285 38.8015 18.4366 38.8123 18.4503ZM40.5341 18.5316C40.3222 18.3966 40.1072 18.2667 39.8892 18.1418C39.9422 18.1733 39.995 18.2048 40.0458 18.2365C40.2135 18.3293 40.3722 18.4323 40.5341 18.5316ZM39.5786 17.9678C39.6829 18.0245 39.7863 18.0828 39.8891 18.1418C39.7871 18.0813 39.6835 18.0232 39.5786 17.9678ZM40.5341 18.5316C40.8523 18.7345 41.164 18.9457 41.4662 19.1698C41.1666 18.9394 40.8555 18.7281 40.5341 18.5316ZM29.0291 19.5142C29.1251 19.4822 29.2205 19.4822 29.3166 19.3862C29.1885 19.4502 29.0925 19.4182 29.0291 19.5142ZM47.1992 31.393C47.1672 31.489 47.1352 31.5851 47.1672 31.6484C47.1672 31.5844 47.2312 31.5204 47.1992 31.393ZM47.1672 34.618C47.1992 35.0334 47.0398 35.4169 47.0078 35.8637C47.1672 35.6723 47.1992 34.9694 47.1992 34.714C47.1992 34.682 47.1992 34.65 47.1672 34.618ZM46.6563 36.3111C46.6883 36.3111 46.7203 36.2791 46.7523 36.2791C46.7523 36.2791 46.7523 36.2471 46.7843 36.2151C46.7523 36.2151 46.5923 36.3111 46.6563 36.3111ZM47.4226 32.1279C47.4546 32.0319 47.4226 31.9685 47.3906 31.9045C47.1672 32.0319 47.2312 32.4787 47.2312 32.7027C47.4226 32.5113 47.3592 32.4153 47.4226 32.1279ZM46.9751 34.3632C46.8158 34.4586 46.8158 34.4586 46.8158 34.6186C46.8477 34.5226 46.9438 34.4592 46.9751 34.3632ZM20.1512 32.5427C20.1192 32.4787 20.1512 32.5747 20.1512 32.5427V32.5427ZM25.196 22.2949L25.1987 22.2937C25.1982 22.2934 25.1973 22.2936 25.196 22.2949ZM21.2689 29.0623C21.242 29.0892 21.2388 29.1743 21.2381 29.223C21.3015 29.2857 21.3649 29.3177 21.4283 29.3177C21.4929 29.2537 21.3329 28.9983 21.2689 29.0623ZM20.8541 28.136C20.7901 28.168 20.9495 28.136 20.8541 28.136V28.136Z" fill="white"/>
<path d="M21.2356 29.2533C21.2362 29.2533 21.2362 29.2539 21.2369 29.2539C21.2369 29.2488 21.2382 29.2321 21.2382 29.2231L21.2369 29.2218C21.2369 29.2258 21.2362 29.2373 21.2356 29.2533ZM25.3247 29.6373C25.2607 29.6053 25.4201 29.6373 25.3247 29.6373V29.6373ZM23.6963 19.9932C23.7923 19.9612 24.2391 19.4824 24.1431 19.3864C24.1111 19.3224 23.7916 19.4824 23.7596 19.5144C23.647 19.5426 23.823 19.6143 23.8461 19.588C23.8339 19.5631 23.8378 19.5387 23.887 19.5144C23.9485 19.5144 23.9459 19.5458 23.8614 19.6046C23.8883 19.6821 23.7858 19.8396 23.7283 19.8972C23.7283 19.9292 23.6963 19.9612 23.6963 19.9932ZM26.0589 42.7619C25.9316 42.7619 26.123 42.6659 26.0589 42.7619V42.7619ZM23.5682 19.8972C23.5362 19.9292 23.5362 19.9612 23.4722 20.0252C23.5682 20.0252 23.6002 19.9932 23.5682 19.8972ZM24.015 19.0029C23.983 19.0029 23.951 19.0349 23.919 19.0669C23.9516 19.0669 23.9836 19.0669 24.015 19.0029ZM24.111 20.632C24.015 20.696 24.5578 20.76 24.5265 20.728C24.6859 20.792 24.7179 20.5366 24.6545 20.4406C24.4631 20.1852 24.335 20.3766 24.0157 20.4726C23.8876 20.5046 23.7923 20.6006 23.6642 20.664C23.7596 20.7594 23.9836 20.6954 24.111 20.632Z" fill="white"/>
<path d="M23.8556 19.6097C23.8594 19.6071 23.8582 19.6065 23.862 19.6039C23.8594 19.5956 23.862 19.5841 23.8556 19.5777C23.8594 19.5854 23.8499 19.5847 23.8467 19.5879C23.8505 19.5949 23.8486 19.6026 23.8556 19.6097ZM39.2919 18.2087C39.2878 18.2073 39.2836 18.206 39.2795 18.2046L39.2919 18.2087ZM28.4649 19.3389C28.4725 19.334 28.4798 19.3287 28.4863 19.3222C28.477 19.3285 28.4703 19.3339 28.4649 19.3389Z" fill="white"/>
<path d="M46.8765 36.788C46.6212 37.3309 46.4297 37.9057 46.1743 38.4485C46.0783 38.6719 45.8549 38.8 45.7589 39.0233C45.6635 39.2474 45.5355 39.5028 45.3441 39.6942C44.9933 40.0456 44.7692 40.5884 44.3224 40.8438C44.099 40.9718 43.7796 40.9398 43.5882 41.1313C43.4608 40.8438 43.7796 40.4284 43.8757 40.173C43.9717 39.7262 43.9397 39.3113 44.1311 38.896C44.4505 38.0977 44.0991 37.2035 44.4505 36.4372C44.5785 36.1178 44.7066 35.8624 44.8659 35.575C45.0259 35.3195 44.9619 34.8408 44.9939 34.5213C45.0579 34.1385 44.8979 33.5637 44.7386 33.2122C44.6746 33.0842 44.2597 32.5093 44.4191 32.35C44.6745 32.1586 44.5785 31.0722 44.2911 30.9129C44.1317 30.8489 43.8763 31.1362 43.7483 30.9129C43.6523 30.7535 43.6523 30.53 43.4608 30.434C43.2055 30.306 42.3118 30.9449 42.1838 30.9129C41.9598 30.8169 41.7364 30.7849 41.513 30.8489C41.2569 30.9129 41.0976 31.1363 40.8422 30.9769C40.6822 30.9129 40.5868 30.7855 40.4587 30.6574C40.1393 30.402 39.7245 30.242 39.6285 29.7952C39.5325 29.4437 39.0536 29.3803 39.0216 28.9969C38.7022 29.2523 38.7342 28.6141 38.7022 28.5181C38.5108 28.1666 38.5742 28.0713 38.6702 27.6878C38.8296 26.9529 37.9673 26.3147 38.6062 25.6759C38.7342 25.5485 38.5428 25.2931 38.7342 25.1971C38.8302 25.1331 38.8302 25.0377 38.8302 24.9417C38.8302 24.7503 39.245 24.6542 39.341 24.4629C39.437 24.1754 39.213 23.952 39.309 23.6326C39.341 23.4726 39.5324 23.4726 39.5965 23.3132C39.6285 23.2172 39.5645 22.9297 39.6605 22.8977C39.8518 22.8337 40.2993 23.2812 40.4907 22.9297C40.6187 22.7383 40.9062 22.6743 41.1296 22.6103C41.2576 22.5783 41.9598 22.4823 42.0238 22.5463C42.1198 22.6423 42.4713 22.8657 42.4073 23.1211C42.3113 23.4078 42.9821 23.4718 43.1415 23.5359C43.3328 23.5999 43.3969 23.8554 43.6203 23.8554C43.7803 23.8554 43.8437 23.9827 43.9717 24.0467C44.1958 24.1741 43.7164 23.1845 44.0677 23.4399C44.2911 23.5999 44.6106 23.7594 44.898 23.8234C44.898 23.76 44.93 23.728 44.962 23.664C45.1541 23.6 45.2814 23.856 45.058 23.4406C44.994 23.3452 44.5152 22.387 44.3872 22.451C44.3232 22.483 44.4192 22.547 44.3872 22.579C44.3232 22.6103 44.1958 22.3869 44.1638 22.451C44.1638 22.451 44.1958 22.547 44.1958 22.579C44.1318 22.643 43.3335 21.8768 43.3015 21.7487C43.3335 21.7487 43.3975 21.7167 43.4295 21.7167C43.4295 21.6527 43.3975 21.6207 43.3655 21.5887C43.3975 21.5567 43.4295 21.5567 43.4615 21.5567C43.4295 21.4933 43.4295 21.4293 43.4615 21.3653C43.5249 21.3013 43.7803 21.5567 43.8764 21.5567C43.8124 21.2372 43.2375 20.8225 42.9821 20.6944C42.9501 20.7264 42.9821 20.7904 42.9821 20.8224C42.9181 20.7264 42.7587 20.7264 42.7267 20.567C42.7907 20.631 42.8541 20.663 42.9501 20.663C43.0141 20.599 42.6947 20.3435 42.6626 20.3115C42.6626 20.3749 42.6626 20.4389 42.6946 20.5029C42.5993 20.5669 42.5353 20.4389 42.4713 20.4389C42.5986 20.8202 43.041 21.3587 43.36 21.553C43.3301 21.5555 43.1829 21.6846 43.2695 21.6846C43.1101 21.6846 43.0781 21.7486 43.0141 21.7486C43.0141 21.9407 43.3649 22.0361 43.4609 22.1641C43.5243 22.2601 43.5563 22.4195 43.6203 22.5475C43.4929 22.5155 43.1735 22.2281 43.1735 22.2281C43.0775 22.2281 42.6946 21.7813 42.6306 21.6853C42.4393 21.4612 42.3752 21.3978 42.1518 21.2698C41.8324 21.1098 41.513 20.791 41.2256 20.695C41.0342 20.631 41.3216 20.9824 41.3216 20.9824C41.4809 21.1104 41.673 21.2058 41.8324 21.3339C42.0878 21.5252 42.4712 21.5572 42.6946 21.8447C42.6306 21.7807 42.5673 21.7807 42.4713 21.7487C42.4713 21.8761 42.6946 22.0361 42.7266 22.2275C42.7266 22.2595 42.7906 22.515 42.7906 22.547C42.7273 22.547 42.3118 22.3556 42.3438 22.2916C42.3758 22.2276 42.8227 22.3236 42.6313 22.0682C42.4713 21.8768 42.2798 21.7494 42.0564 21.6214C41.705 21.4293 41.2902 21.0786 40.9068 20.9505C41.0028 21.4294 40.3 21.0786 40.364 21.27C40.364 21.334 40.6834 21.5574 40.428 21.6214C40.268 21.6534 40.332 21.7808 40.3 21.9089C40.3 21.9729 40.6194 22.4197 40.364 22.4837C40.1406 22.5471 40.5234 22.6431 40.0765 22.6431C39.8845 22.6431 39.8212 22.8671 39.6931 22.7711C39.4697 22.6117 39.4697 22.6437 39.2143 22.6117C39.0869 22.5803 39.0869 22.5803 39.0549 22.4523C38.9909 22.2923 38.7995 22.2923 38.8315 22.1009C38.8315 21.8455 38.6721 21.7494 38.6081 21.5261C38.6081 21.4941 38.3207 21.1746 38.6081 21.2066C38.7361 21.2066 39.5344 21.3666 39.5984 21.2386C39.8538 20.8552 38.7041 20.3123 38.5128 20.2483C38.6408 20.1843 38.7688 20.2163 38.9282 20.2163C38.8962 20.121 38.8322 20.089 38.8002 20.057C38.8002 20.057 39.311 20.121 39.0876 19.8656C39.0876 19.8656 39.1516 19.4188 39.1516 19.4508C39.1516 19.3234 39.4711 19.2914 39.343 19.2274C39.0556 19.068 38.9282 18.9399 38.8642 18.6846C39.0556 18.8126 39.343 19.2594 39.5984 19.2594C39.6944 19.2594 39.9178 19.2594 39.9498 19.1954C40.1092 19.004 40.0138 19.1954 40.2373 19.1634C40.2053 18.94 39.8225 18.8119 39.7905 18.6526C39.8538 18.6526 39.8858 18.7166 39.9818 18.7166C39.9818 18.6846 39.279 18.3011 39.6304 18.3651C39.7578 18.2051 39.375 18.0777 39.279 18.0457C39.3423 18.1091 39.4063 18.1411 39.4703 18.2051C38.9909 18.5879 38.4481 17.5982 37.9692 17.5662C38.0012 17.6936 38.3841 17.9491 38.4801 18.0451C38.6721 18.2051 38.9595 18.2371 39.1509 18.3965C39.343 18.5886 39.4703 18.8119 39.5663 19.0033C39.4807 19.1464 38.9062 18.57 38.8123 18.4503C38.8403 18.4994 38.8682 18.5321 38.8961 18.5879C38.8001 18.6513 38.7048 18.4279 38.6087 18.4599C38.4493 18.5559 38.7367 18.7159 38.3533 18.5879C38.0979 18.4919 37.6511 18.2044 37.6191 17.9491C37.5871 17.8217 37.0123 17.1188 36.9483 17.1829C37.1397 16.9274 38.0659 17.2789 38.3214 17.4382C38.3214 17.4702 38.2894 17.4382 38.2894 17.4702C38.2894 17.5022 38.7368 17.6936 38.8962 17.7256C38.8642 17.6936 38.6088 17.5662 38.6088 17.5022C38.6728 17.5982 39.1196 17.7256 39.2156 17.7897C39.3386 17.8448 39.4597 17.9042 39.5786 17.9678C37.3154 16.7358 34.7235 16.0332 31.9667 16.0332C23.1535 16.0332 16 23.186 16 31.9999C16 40.8138 23.1535 47.9666 31.9667 47.9666C40.538 47.9666 47.5372 41.2011 47.9155 32.7226C47.8995 32.8647 47.8906 33.0068 47.8668 33.1477C47.4514 34.4247 47.3874 35.5744 46.8765 36.788ZM44.4524 22.8032C44.5164 22.8346 44.5484 22.8986 44.5484 22.9626C44.4531 22.9306 44.4211 22.8672 44.4524 22.8032ZM44.0056 22.8992C43.9416 22.9312 43.9096 22.9632 43.9096 22.9312C43.8462 22.8672 43.7502 22.9312 43.7182 22.8032C43.8142 22.8352 43.9102 22.8352 44.0056 22.8992ZM41.5789 22.1009C41.4829 22.2603 41.2914 21.8456 41.1634 21.7815C41.2274 21.7495 41.2594 21.7175 41.2914 21.6855C41.3875 21.6855 41.6109 22.0369 41.5789 22.1009ZM41.0361 21.3661C41.0994 21.3021 41.2274 21.5895 41.2274 21.6215C41.1954 21.5895 40.94 21.4301 41.0361 21.3661ZM40.6852 22.1009C40.6532 22.1009 40.6212 22.1009 40.5892 22.0689C40.4292 22.0369 40.8126 21.9409 40.6852 22.1009ZM36.7568 18.6513C36.7888 18.6833 36.8208 18.6833 36.7888 18.7473C36.7888 18.7473 36.8208 18.7793 36.8208 18.8113C36.7888 18.8113 36.6928 18.6519 36.7568 18.6513ZM34.8729 16.5127C34.9299 16.5127 34.8093 16.538 34.8051 16.5435C34.6145 16.4808 34.3922 16.4802 34.202 16.4166C34.4254 16.3846 34.7129 16.48 34.8729 16.5127ZM34.3934 17.6617C34.4894 17.6297 35.3197 17.725 35.0322 17.8531C34.8089 17.9491 34.4894 18.0764 34.298 17.8851C34.234 17.8537 33.9786 17.7257 33.9466 17.7257C33.9466 17.6297 34.33 17.6617 34.3934 17.6617ZM29.4459 16.5453C29.8287 16.3219 30.5949 16.2899 31.0104 16.3219C31.4892 16.3859 31.9686 16.2259 32.4154 16.3219C32.6068 16.3219 32.7669 16.3539 32.9583 16.3539C33.1176 16.3859 32.9263 16.5453 33.1176 16.5773C33.213 16.5773 33.4364 16.8327 33.5325 16.8007C33.5325 16.96 33.4365 16.8647 33.5005 17.024C33.5005 17.0554 33.7238 17.1834 33.6918 17.1834C33.6598 17.2154 33.149 17.1834 33.181 17.1834C33.149 17.1834 33.181 17.2794 33.213 17.2474C33.3084 17.2794 33.5318 17.2474 33.6598 17.2474C33.4038 17.5035 32.989 17.4715 32.7016 17.6629C32.5095 17.7902 32.2541 17.7582 32.0628 17.8542C32.0628 18.0463 31.9034 18.3017 31.7753 18.5251C31.6793 18.5891 31.009 18.2697 30.945 18.1736C30.785 18.0142 30.4656 17.5354 30.817 17.4074C31.2639 17.2474 30.817 17.3754 30.689 17.2794C30.785 17.1193 30.9131 17.1834 31.0725 17.2154C30.9765 17.0873 30.8811 17.0553 30.753 17.1193C30.721 16.9913 30.9444 16.864 30.753 16.7359C30.689 16.6719 30.2102 16.7359 30.2102 16.6719C30.1788 16.4805 30.785 16.5759 30.881 16.4165C30.4342 16.3205 29.9548 16.768 29.54 16.704H29.2845C29.2846 16.608 29.572 16.608 29.4459 16.5453ZM29.4126 16.7354C29.3166 16.8314 29.1251 16.8314 28.8698 16.7994C28.9651 16.7994 28.8057 16.7354 28.7417 16.7674C29.0291 16.576 29.0925 16.704 29.4126 16.7354ZM28.7417 16.6714C28.7417 16.6714 28.6464 16.8635 28.5824 16.7994C28.5504 16.7674 28.5184 16.7994 28.4864 16.7674C28.5497 16.64 28.6457 16.672 28.7417 16.6714ZM28.1342 16.9595C28.2622 16.8635 28.3896 16.8635 28.5177 16.8635C28.3903 16.9275 28.2943 16.9595 28.1342 16.9595ZM28.1669 16.9595C28.1349 16.9915 28.1349 16.9915 28.1029 16.9915C28.1029 16.9595 28.1349 16.9595 28.1669 16.9595ZM28.3589 16.7034C28.2629 16.7674 28.2949 16.7354 28.3269 16.7034C28.1989 16.7674 28.0715 16.7354 27.9435 16.7674C28.1349 16.64 28.1989 16.64 28.3589 16.7034ZM20.0552 32.6067C20.0232 32.5747 20.0232 32.3513 20.0552 32.3193C20.0872 32.3833 20.1192 32.4786 20.1512 32.5427C20.1512 32.6067 20.1192 32.6388 20.0552 32.6067ZM20.2793 32.5107C20.2153 32.3833 20.2473 32.6708 20.2793 32.5107V32.5107ZM26.3796 44.1668C26.2836 44.0388 26.539 43.8794 26.2836 43.8154C26.1236 43.7834 26.1876 43.8787 26.1876 43.6874C26.1556 43.3679 25.9963 43.3039 26.2516 43.3679C26.2196 43.3679 26.2836 42.6977 26.0283 42.8571C26.2516 43.0805 25.9963 43.1765 25.9963 43.1125C25.9963 42.8571 25.6768 42.0588 25.6128 41.9948C25.5808 41.9308 25.6448 41.8035 25.6448 41.7074C25.6128 41.452 25.6128 41.1646 25.6448 40.9091C25.6448 40.7498 25.5174 40.5583 25.4534 40.4303C25.3894 40.3023 25.5174 40.2389 25.4214 40.1109C25.2614 39.9195 25.4534 39.536 25.3574 39.3126C25.1974 38.9932 25.2614 38.5464 25.2294 38.195C25.2294 37.6208 24.878 37.1733 24.3992 36.9179C23.7923 36.5985 23.4409 36.2157 23.1855 35.5768C23.0575 35.1294 22.5786 34.3952 22.2272 34.0757C22.0031 33.9157 22.3866 33.1175 22.3866 33.1175C22.1632 32.9581 22.1312 32.9261 22.2272 32.6067C22.2592 32.4793 22.3552 32.3199 22.3232 32.1918C22.3232 32.1598 22.5466 32.0325 22.5786 31.9364C22.6106 31.7764 23.0894 31.4256 22.93 31.2976C22.802 31.1382 23.026 30.7227 22.93 30.5314C22.866 30.4034 22.7379 29.8925 22.5466 29.8925C22.2912 29.9245 22.3232 30.4354 22.1951 30.3714C22.0357 30.3074 21.9077 30.0519 21.7163 29.9879C21.5883 29.9559 21.5883 29.6685 21.3988 29.5788C21.3988 29.6108 21.3988 29.6428 21.3668 29.6748C21.2266 29.7587 21.2343 29.3747 21.2381 29.2588C21.016 29.1935 21.0473 28.812 20.9833 28.7166C20.888 28.6206 20.3771 28.6526 20.2491 28.4291C20.1531 28.2698 20.0891 27.9503 19.8977 27.8863C19.6743 27.8543 19.6423 28.0784 19.4189 27.9503C19.3229 27.8863 18.7481 27.4075 18.7481 27.2795C18.7481 27.0881 18.4606 26.832 18.6841 26.6727C18.6841 26.6407 18.7481 26.3852 18.7801 26.3532C18.9081 25.8744 18.6527 25.3309 18.8441 24.8841C18.9074 24.7887 19.0674 23.8945 19.0354 23.8625C18.8114 23.7665 18.5246 25.9378 18.3966 26.0338C18.492 25.555 18.3966 25.0761 18.62 24.6927C18.7794 24.5327 18.8114 24.2132 18.8754 24.0219C18.9714 23.7665 19.1629 23.511 19.1308 23.2236C19.1308 22.8401 20.6959 20.9876 21.1427 20.5729C21.941 19.774 22.7072 19.1038 23.6655 18.4969C24.2403 18.1455 24.8471 17.8261 25.454 17.5387C25.7094 17.4107 25.9968 17.3153 26.2843 17.2192C26.4436 17.3466 26.2523 17.3466 26.1883 17.4106C26.3163 17.4746 26.4436 17.4426 26.5397 17.3466C26.4757 17.1552 27.338 16.8038 27.6254 16.8038C27.562 16.8678 27.498 16.8678 27.466 16.8998C27.5294 16.9638 27.5934 16.8998 27.6574 16.8998C27.5614 17.0272 26.6991 17.3786 26.6991 17.3786C26.7631 17.5386 27.2419 17.2192 27.3699 17.2192C27.3379 17.3466 27.1785 17.3146 27.1145 17.3786C27.4192 17.4337 27.5562 17.0822 27.8366 17.0291C27.7983 17.0342 27.7595 17.0335 27.7214 17.0272C27.8487 16.9318 28.0081 16.8998 28.1362 16.8678C28.0427 16.9382 27.9659 17.0073 27.8564 17.0272C27.8961 17.0213 27.9365 17.0215 27.9761 17.0278C27.9211 17.0828 27.7253 17.2785 27.6305 17.3328C27.6828 17.3161 27.7388 17.3152 27.8161 17.3152C27.7841 17.4106 27.6247 17.3786 27.5927 17.5066C27.7841 17.4106 28.0082 17.3786 28.1996 17.2192C28.1676 17.1872 28.1676 17.1552 28.1355 17.1232C28.2956 16.9958 28.519 16.8998 28.7424 16.8678C28.6144 16.9632 28.519 16.9952 28.4549 17.0912C28.6463 17.0278 28.7744 16.8998 28.9978 16.9318C28.9978 16.9958 28.9338 16.9958 28.9018 17.0598C28.9978 17.0598 29.0611 17.0598 29.1571 16.9958C29.1251 16.9638 29.0931 16.9958 29.0611 16.9638C29.1251 16.9318 29.2205 16.8998 29.2845 16.9318C29.2205 17.1552 29.4125 17.1232 29.572 17.2192C29.6993 17.3146 29.3479 17.3466 29.444 17.4106C29.54 17.506 29.7314 17.506 29.8274 17.602C29.796 17.6654 29.4766 17.8254 29.4126 17.7934C29.3806 17.7934 29.0611 17.4739 29.1251 17.7614C29.2205 18.0808 29.2205 18.1762 28.7737 17.9527C28.7737 17.9847 28.9337 18.1441 28.9017 18.1761C28.8697 18.2395 28.4229 18.1121 28.4229 18.0481C28.3269 17.7927 27.944 17.9527 27.912 17.8567C27.912 17.8887 29.3171 17.5373 28.7423 17.2179C28.6463 17.1539 28.1675 17.3133 28.1035 17.4413C28.0395 17.5687 27.8794 17.6007 27.72 17.6327H27.4647C27.4013 17.6967 27.5287 17.9201 27.5607 17.9521C27.4327 18.0481 27.0818 17.9841 26.9538 17.9841C27.0172 17.9201 27.1132 17.9521 27.1452 17.8561C26.9852 17.7601 26.1229 18.1749 25.9636 18.2709C25.5161 18.495 25.5161 18.6224 25.2927 18.9098C25.3567 18.9731 25.6442 18.8458 25.6122 19.0691C25.6122 19.1965 26.027 19.2605 26.059 19.2605C25.9636 19.3565 25.8996 19.4519 25.8356 19.548C25.8676 19.58 25.9636 19.548 25.9636 19.612C25.9323 19.676 25.8683 19.644 25.8043 19.58C25.7083 19.7393 25.7723 19.9314 25.9636 19.8674C26.1557 19.7714 26.187 19.6433 26.3151 19.484C26.5065 19.1965 26.9219 19.2286 27.0813 18.9091C27.1773 18.7178 26.9219 18.7491 27.2093 18.5897C27.3373 18.5257 27.4647 18.3343 27.5607 18.2062C27.7521 17.9509 28.1996 18.3336 28.359 18.3976C27.9435 18.9724 28.7104 18.621 28.9338 18.4616C28.9978 18.9724 29.0932 19.1645 29.5086 19.3559C29.4766 19.4199 29.4446 19.3879 29.4126 19.4199C29.4766 19.4199 29.7641 19.5473 29.7001 19.6433C29.6444 19.7547 29.5804 19.8103 29.5087 19.8455C29.5439 19.827 29.5906 19.8193 29.6681 19.8347C29.6372 19.8655 29.3991 20.0741 29.4111 20.1175C29.4242 20.1021 29.7321 20.1881 29.7321 20.2181C30.0195 20.1221 29.8281 20.3455 29.9875 20.3775C29.9875 20.4095 29.9875 20.9523 29.7641 20.6969C29.7961 20.6649 29.7961 20.6329 29.7961 20.6009C29.7001 20.5689 29.4766 20.6969 29.4126 20.6969C29.4126 20.6329 29.5086 20.6649 29.5086 20.6009C29.4126 20.5369 28.8378 20.5689 28.8378 20.5369C28.8378 20.5055 28.9018 20.4415 28.9658 20.3775L29.3889 19.9544C29.4043 19.9467 29.4286 19.9307 29.4126 19.9307C29.4427 19.9007 29.4664 19.8712 29.4991 19.8513C29.3678 19.9115 29.2116 19.9051 29.0292 20.0267C28.7097 20.2508 28.1669 20.0907 27.7835 20.1227C27.4327 20.1547 27.0493 20.5382 26.7298 20.7295C27.1133 20.7295 27.4327 20.2187 27.9115 20.3147C28.1989 20.3781 27.6561 20.5061 27.592 20.5061C27.6554 20.5701 27.7194 20.6021 27.7834 20.5701C27.8794 20.6975 27.592 20.9849 28.0709 20.9849C28.3262 20.9849 28.3262 20.7295 28.5177 20.7295L28.5817 20.8889C28.4857 21.1123 27.6554 21.2404 27.4 21.3997C27.1767 21.5277 27.496 21.0489 27.6875 20.9849V20.9529C27.336 21.0809 26.9533 21.2724 26.6018 21.3364C26.3785 21.3677 26.2504 21.5917 26.2824 21.7832C26.0903 21.8792 25.8669 21.8472 25.6756 21.9112C25.7389 21.9432 25.7709 21.9112 25.8349 21.9432C25.6439 22.0706 25.3587 22.2288 25.1988 22.2935C25.2127 22.3008 25.0354 22.7336 25.0047 22.55C24.9727 22.454 24.9727 22.2946 25.1007 22.2626C24.9094 22.2626 25.0047 22.582 24.8133 22.486C24.8133 22.5173 25.0047 22.6773 24.8453 22.6453V22.6331C24.8287 22.6773 24.7813 22.7727 24.7813 22.7727C24.7813 22.8041 24.8773 22.8361 24.8453 22.9321C24.8139 23.0281 24.6859 22.9641 24.6859 23.0601C24.7499 22.9961 24.7819 23.0601 24.7819 23.1241C24.7179 23.2201 24.4945 23.3155 24.3985 23.3795C24.111 23.5388 23.8237 23.7309 23.5682 23.9543C23.2168 24.2417 23.1534 25.6468 23.0254 25.6468C22.9294 25.6468 22.9614 25.5194 22.8974 25.4554C22.802 25.36 22.9614 24.2744 22.706 24.4337C22.5466 24.5291 22.3866 24.3697 22.1952 24.3377C22.1952 24.3377 21.7164 24.3057 21.7164 24.3697C21.7164 24.4017 21.8437 24.4337 21.8757 24.4337L21.8437 24.6251C21.7477 24.6565 21.5563 24.5931 21.4923 24.4971C21.4283 24.4011 21.0775 24.5611 21.0135 24.4651C21.0775 24.5291 20.5987 24.7846 20.5667 24.8166C20.4066 24.9766 20.3753 25.3914 20.2472 25.4874C19.7678 25.7748 19.9278 26.6057 19.8958 27.0205C19.8318 27.3719 20.1832 27.4359 20.4386 27.3079C20.5346 27.2439 20.63 27.4039 20.694 27.2759C20.758 27.1479 20.8533 27.0845 20.9173 26.9565C20.9807 26.8285 21.5235 26.2857 21.6515 26.573C21.6835 26.637 21.3641 27.2432 21.3001 27.3713C21.2047 27.3713 21.1407 27.4993 21.1407 27.7227C21.1407 27.7227 20.8853 28.2336 21.1087 28.0742C21.2047 27.9782 22.099 28.0422 22.003 28.2656C21.7796 28.7764 21.5882 29.4472 22.035 29.894C22.2904 30.1494 22.4504 29.702 22.6418 29.766C22.8652 29.8614 23.0886 29.9574 23.1526 30.2129C23.2486 30.2129 23.5681 29.1592 23.7595 29.4467C23.8228 29.3513 24.4297 28.9678 24.4937 28.9998C24.4297 28.9678 24.4297 29.5107 24.3657 29.5747C24.0469 29.8621 24.7171 30.0535 24.4937 29.6387C24.3657 29.4153 24.5257 29.3512 24.717 29.2872C24.813 29.2552 24.749 29.0958 24.813 29.0638C24.813 29.0958 25.1005 29.2872 25.1325 29.2872C25.3559 29.4146 25.1005 29.5426 25.4839 29.4786C25.7714 29.4146 25.9308 29.734 26.1861 29.5106C26.3775 29.3506 26.6016 29.5106 26.761 29.4466C26.6976 29.4786 26.6336 29.5106 26.5696 29.4786C26.6016 29.6707 27.0804 29.7027 27.0484 29.862C27.0164 30.0214 27.1758 30.0214 27.2718 30.0534C27.4958 30.1494 27.4958 30.3095 27.6552 30.4689C27.7832 30.5962 28.1347 30.8837 28.3581 30.7242C28.5815 30.5962 29.4758 30.9476 29.4758 31.2351C29.5391 31.1711 29.9226 32.0013 29.9226 32.0333V32.0634C29.9226 32.064 29.9234 32.0651 29.9236 32.066C29.9258 32.0674 29.9275 32.0694 29.9286 32.0718C29.9296 32.0742 29.93 32.0768 29.9296 32.0794V32.0813C29.9481 32.1831 30.1562 32.3873 30.37 32.4481C30.4333 32.863 30.5293 32.5115 30.8168 32.6075C30.9448 32.6395 31.2956 32.7349 31.3916 32.8309C31.4556 32.8949 31.4236 33.1504 31.4556 33.1504C31.4556 33.1504 31.647 33.0543 31.615 33.0863C31.711 32.959 31.9344 33.1184 31.9984 33.1184C32.1898 33.1824 32.4139 33.1184 32.6053 33.1504C32.9567 33.1824 33.1481 33.5338 33.4355 33.6932C33.787 33.8846 33.9144 33.6292 34.0424 34.108C34.1384 34.4274 34.1064 34.7468 33.883 34.9703C33.6596 35.2256 33.2122 35.7685 33.0527 35.8325C32.7653 35.9279 33.0207 37.397 32.6693 37.6844C32.3178 37.9719 32.3818 38.6101 31.871 38.4506C31.807 38.4186 31.4882 38.61 31.3922 38.642C31.1047 38.7694 30.8494 38.8975 30.626 39.1208C30.3705 39.3449 30.594 39.7597 30.3385 40.0471C30.3385 40.0471 29.8277 40.7173 29.7317 40.8454C29.6997 40.8134 29.6997 40.7814 29.6677 40.7814C29.6037 40.8774 29.4436 40.9408 29.5397 41.0688C29.5397 40.9728 29.6037 40.9408 29.6677 40.9408C29.7317 41.0048 29.5083 41.2603 29.4763 41.2603C29.3163 41.4203 29.2209 41.2603 29.0929 41.3563C28.9335 41.4523 28.6461 41.2289 28.5181 41.1969C28.4861 41.3563 28.9329 41.6123 28.9969 41.7717C29.1889 42.2825 28.1026 42.2185 27.9432 42.2505C27.9432 42.3459 28.1032 42.5693 28.0712 42.6653C27.9752 42.8887 27.6244 42.5693 27.5284 42.6653C27.4644 42.7287 27.7518 43.0802 27.7838 43.1122C27.7518 43.1762 27.6878 43.4956 27.6558 43.4956C27.5278 43.4636 27.3683 43.655 27.5278 43.7831C27.6238 43.8471 27.7512 43.8471 27.8472 43.9111C28.0706 44.0391 27.6552 44.1671 27.7512 44.3265C27.8792 44.5499 27.4638 44.4219 27.8472 44.7733C27.3832 44.8008 27.7102 45.0134 27.8159 45.0748C27.8114 45.0678 27.8364 45.0608 27.8792 44.9967C27.8479 44.9647 27.7519 45.0287 27.7199 44.9647C27.6245 44.7093 28.1033 45.0287 28.1033 44.9967C28.2627 45.0921 28.5181 45.0921 28.6141 45.1881C28.5501 45.1881 28.3907 45.2521 28.3267 45.2521C27.9432 45.1881 27.4004 45.2201 27.081 44.9006C26.8252 44.7096 26.5384 44.4542 26.3796 44.1668ZM28.4223 17.5343C28.4543 17.4383 28.5183 17.4383 28.6777 17.4383C28.6137 17.5343 28.5177 17.5343 28.4223 17.5343ZM27.4327 18.1405C27.4007 18.1725 27.3687 18.2045 27.3047 18.2365C27.3367 18.1725 27.4 18.1405 27.4327 18.1405ZM27.2727 18.0445C27.1767 18.1085 27.1133 18.1405 27.0172 18.1405C27.1126 18.0771 27.1767 18.0771 27.2727 18.0445ZM27.9087 20.6979C27.915 20.7129 28.0739 20.7913 28.1029 20.7913C28.1349 20.8233 28.1669 20.7913 28.1989 20.7913C28.0427 20.9789 27.8557 20.7376 27.9087 20.6979ZM28.1029 20.1524C28.2629 20.1524 28.3583 20.1844 28.4864 20.2804C28.3263 20.3125 28.1989 20.2484 28.1029 20.1524ZM26.8572 29.6372C26.8572 29.6372 26.9212 29.4452 27.0166 29.4458C27.1766 29.5412 26.9212 29.6372 26.8572 29.6372ZM26.0589 27.4019C25.3887 27.0824 25.8676 27.8807 26.0589 27.4019V27.4019ZM23.4402 26.9864C23.2808 27.0184 23.5362 26.859 23.5362 26.827C23.4402 26.5717 22.7059 26.5396 22.6419 26.3482C22.6739 26.3482 22.7059 26.3162 22.7059 26.2842C22.4506 26.1882 22.3225 26.4756 22.0991 26.4756C22.5786 25.6773 23.6962 26.603 24.175 26.9544C23.9197 26.9544 23.6643 26.9544 23.4402 26.9864ZM23.5682 27.4972C23.5362 27.6246 23.1848 27.4652 23.1528 27.4012C23.2808 27.3372 23.3761 27.3692 23.5042 27.4332C23.5362 27.4332 23.5682 27.4332 23.5682 27.4972ZM22.4506 26.4756C22.4506 26.5396 22.4186 26.5716 22.3546 26.5396C22.3546 26.5076 22.4506 26.3796 22.4506 26.4756ZM23.5866 25.9588C23.5281 25.8041 23.4813 25.7934 23.6002 25.6453C23.6322 25.8053 23.6322 25.8687 23.6002 25.9648C23.6002 25.9413 23.5833 25.9354 23.5866 25.9588ZM24.4939 27.3372C24.3985 27.1779 24.4939 27.1139 24.3025 27.0498C24.4625 26.8264 25.0694 27.0818 25.2287 27.1778C25.2287 27.2098 25.1647 27.1778 25.1647 27.2098C25.1647 27.2098 25.5482 27.5292 25.2927 27.4332C25.0053 27.3052 24.8453 27.4646 24.6539 27.5926C24.4939 27.3692 24.2385 27.5292 24.0471 27.4332C23.9197 27.3699 24.4305 27.3699 24.4939 27.3372ZM27.8795 43.0492C27.8795 43.1765 27.6241 42.9852 27.8155 42.9532C27.8475 42.9531 27.8795 42.9851 27.8795 43.0492ZM35.2576 47.5185C34.4274 47.7099 33.5652 47.8059 32.7029 47.8379C31.0738 47.902 29.3813 47.7739 27.8168 47.2951C28.0089 47.3271 28.2642 47.4231 28.4556 47.3911C28.2636 47.2638 28.0082 47.2958 27.8488 47.1677C28.487 47.2638 29.1258 47.2318 29.7327 47.2958C29.6687 47.1998 29.1259 47.0724 29.1259 47.0404C29.1899 47.0404 29.6367 47.0084 29.6367 47.0084C29.8281 46.849 29.3173 46.881 29.3813 46.753C29.3813 46.721 29.5407 46.785 29.5727 46.721C29.6367 46.6256 29.5727 46.5616 29.6047 46.4976C29.6367 46.4662 30.403 46.3062 30.499 46.3382C30.4036 46.4016 30.3076 46.3382 30.3396 46.4976C30.2436 46.4976 30.0201 46.4976 29.9881 46.5936C29.9881 46.5616 30.2436 46.9451 30.2756 46.9451C30.371 47.0724 30.6904 47.1684 30.7224 47.3599C30.7864 47.6473 32.2875 47.6153 32.5109 47.5833C33.0858 47.5193 33.5966 47.3279 34.1394 47.2318C34.4582 47.1684 34.8096 47.0724 35.1291 47.0404C35.2884 47.0404 35.7993 46.8491 35.9273 46.8811C35.9907 47.1364 37.2044 46.7851 37.4918 46.8491C37.4917 46.9129 35.4798 47.4558 35.2576 47.5185ZM37.1409 19.7056C37.0448 19.6096 37.1089 19.3861 36.8855 19.3221C36.9488 19.2901 37.0128 19.2901 37.0448 19.2581C36.8848 18.9073 37.3957 19.3221 37.4597 19.3861C37.747 19.6736 37.2996 19.865 37.1409 19.7056ZM38.0345 19.993C37.9705 19.8017 38.1939 19.8017 38.1945 19.7703C38.1945 19.7383 37.9071 19.7063 37.8751 19.7063C37.9384 19.7063 37.7791 19.4829 37.7471 19.4188C37.7791 19.4188 37.8431 19.4188 37.8751 19.3868C37.8431 19.2908 37.3642 19.0034 37.3322 19.0354C37.1402 19.1314 36.9488 18.6526 36.9168 18.5886C37.2042 18.5566 37.3956 18.8753 37.683 19.0034C37.9064 19.0988 38.7367 19.5142 38.7687 19.7697C38.8007 19.897 38.1305 19.8337 38.0345 19.993Z" fill="white"/>
<path d="M27.4321 44.9648C27.4961 44.9328 27.4961 44.9328 27.4641 44.9008C27.4001 44.9328 27.3687 44.9328 27.4321 44.9648ZM26.8572 44.6454C26.8252 44.6454 26.8252 44.6774 26.8572 44.7094C26.9212 44.6774 26.9212 44.6774 26.8572 44.6454ZM26.4424 40.3028C26.3464 40.3028 26.5384 40.2708 26.4424 40.3028V40.3028ZM27.8475 45.0929C27.8475 45.0929 27.8341 45.0858 27.8161 45.075C27.8187 45.0781 27.8264 45.082 27.8475 45.0929ZM26.059 27.4017C25.9316 27.3697 26.027 27.465 26.059 27.4017V27.4017ZM39.2989 18.2107C39.3182 18.2172 39.3393 18.2242 39.2989 18.2107V18.2107ZM28.8051 17.6935C28.8691 17.6615 28.9331 17.6935 28.9965 17.6295C28.9011 17.5661 28.8691 17.5661 28.8051 17.6935ZM26.6979 19.386C26.6339 19.418 26.5699 19.418 26.5065 19.45C26.6339 19.482 26.6339 19.482 26.6979 19.386ZM28.5817 17.8535H28.6777C28.6778 17.8535 28.7098 17.7255 28.5817 17.8535ZM27.1126 17.7575C27.1766 17.7255 27.1766 17.6935 27.1126 17.6935C27.0486 17.7255 27.0486 17.7255 27.1126 17.7575ZM27.3367 17.7255C27.2727 17.7255 27.2407 17.7255 27.2087 17.7575C27.0813 17.8215 27.3687 17.7895 27.3367 17.7255ZM28.6144 19.3853C28.5818 19.3539 28.5498 19.3219 28.4864 19.3219C28.5147 19.3798 28.4141 19.3852 28.4649 19.3386C28.3971 19.3813 28.2885 19.3701 28.2309 19.5134C28.2949 19.4173 28.6144 19.4173 28.6144 19.3853ZM26.6339 20.0248C26.639 20.0197 26.6524 20.0114 26.6639 20.0037C26.6517 20.0351 26.5385 20.1913 26.8572 19.8968C26.8572 19.8968 26.726 19.9634 26.6639 20.0037C26.6677 19.9941 26.6639 19.9948 26.6339 20.0248ZM27.6241 19.9288C27.5281 19.8968 27.7195 19.9288 27.6241 19.9288V19.9288ZM27.2407 19.0666C27.2087 19.0346 27.2087 19.0026 27.1767 19.0346C27.2087 19.0986 27.2087 19.0986 27.2407 19.0666ZM24.4625 20.1842C24.5265 20.2482 24.6219 20.0882 24.6219 20.0562C24.5899 19.9928 24.4305 20.1522 24.4625 20.1842ZM24.8459 18.0769C24.8139 18.0449 24.6226 18.1729 24.5585 18.2049C24.5265 18.2369 24.4945 18.2369 24.4625 18.3009C24.4945 18.2683 24.9413 18.1723 24.8459 18.0769ZM23.8883 21.0779C23.8563 21.1099 23.4729 21.6527 23.5369 21.7167C23.5689 21.7487 24.3031 20.9825 24.3991 20.9184C24.6545 20.759 24.4311 21.2379 24.3351 21.3019C24.3985 21.2699 24.4625 21.2059 24.4945 21.2379C24.5265 21.3012 24.4945 21.3652 24.4305 21.4292C24.5579 21.3972 24.8453 21.1418 24.8453 20.9824C25.0374 21.2385 25.1328 20.919 24.9413 20.823C24.6539 20.727 24.1431 20.8871 23.8883 21.0779ZM24.9099 20.9191C24.8459 20.9511 24.8139 20.9511 24.8139 20.8871C24.8139 20.8871 24.9413 20.8551 24.9099 20.9191ZM24.1727 21.7259C24.1734 21.7231 24.1738 21.7204 24.1751 21.7173C24.1728 21.7219 24.1723 21.7244 24.1727 21.7259ZM24.5265 18.4917C24.5265 18.4102 24.2466 18.5614 24.1454 18.607C24.2542 18.5729 24.5265 18.5199 24.5265 18.4917ZM24.1454 18.607C24.1337 18.6104 24.1222 18.6147 24.1111 18.6197C24.1157 18.6197 24.1283 18.6147 24.1454 18.607Z" fill="white"/>
<path d="M24.1726 21.7263C24.1388 21.8668 24.8139 21.6216 24.8139 21.6216C24.6859 21.6536 24.7819 21.6216 24.8139 21.6216C24.8779 21.5896 24.9419 21.5576 25.0053 21.4936C24.8773 21.4936 24.3984 21.5256 24.3344 21.5576C24.3939 21.5279 24.1778 21.7466 24.1726 21.7263ZM24.9099 21.3983C25.0373 21.5256 25.9315 21.3343 25.3567 21.2703C25.1973 21.2382 25.0373 21.2702 24.9099 21.3983ZM25.2607 17.7258C25.4201 17.6938 25.6441 17.6298 25.7715 17.5024C25.5801 17.5344 25.4201 17.6298 25.2607 17.7258ZM25.2927 20.8234C25.2927 20.7914 25.2607 20.7914 25.2287 20.8234C25.2607 20.8554 25.2607 20.8554 25.2927 20.8234Z" fill="white"/>
</g>
<defs>
<clipPath id="clip0_27_73792">
<rect width="32" height="32" fill="white" transform="translate(16 16)"/>
</clipPath>
</defs>
</svg>
