<svg width="56" height="56" viewBox="0 0 56 56" fill="none" xmlns="http://www.w3.org/2000/svg">
<rect width="48" height="48" rx="4" fill="#3663EF" fill-opacity="0.2"/>
<rect x="8" y="8" width="48" height="48" rx="4" fill="#3663EF"/>
<path d="M43.3333 28H41.3333V25.3333C41.3333 20.1869 37.1465 16 32 16C26.8535 16 22.6667 20.1869 22.6667 25.3333V28H20.6667C20.5791 27.9999 20.4924 28.0171 20.4115 28.0506C20.3306 28.0841 20.2571 28.1332 20.1951 28.1951C20.1332 28.2571 20.0841 28.3306 20.0506 28.4115C20.0171 28.4924 19.9999 28.5791 20 28.6667V45.3334C20 46.8041 21.1959 48 22.6667 48H41.3334C42.8041 48 44 46.8041 44 45.3333V28.6667C44.0001 28.5791 43.9829 28.4924 43.9494 28.4115C43.9159 28.3306 43.8668 28.2571 43.8049 28.1951C43.7429 28.1332 43.6694 28.0841 43.5885 28.0506C43.5076 28.0171 43.4209 27.9999 43.3333 28ZM33.9961 41.9264C34.0064 42.0196 33.997 42.1139 33.9684 42.2032C33.9398 42.2925 33.8927 42.3748 33.8301 42.4446C33.7676 42.5145 33.691 42.5704 33.6054 42.6086C33.5198 42.6469 33.4271 42.6667 33.3334 42.6667H30.6667C30.5729 42.6667 30.4802 42.6469 30.3946 42.6086C30.309 42.5704 30.2325 42.5145 30.1699 42.4446C30.1074 42.3748 30.0603 42.2925 30.0317 42.2032C30.0031 42.1139 29.9936 42.0196 30.0039 41.9264L30.4245 38.1446C29.7416 37.6478 29.3334 36.862 29.3334 36C29.3334 34.5293 30.5293 33.3333 32.0001 33.3333C33.4708 33.3333 34.6667 34.5292 34.6667 36C34.6667 36.862 34.2586 37.6478 33.5756 38.1446L33.9961 41.9264ZM37.3333 28H26.6667V25.3333C26.6667 22.3926 29.0592 20 32 20C34.9408 20 37.3333 22.3926 37.3333 25.3333V28Z" fill="white"/>
</svg>
