<svg width="56" height="56" viewBox="0 0 56 56" fill="none" xmlns="http://www.w3.org/2000/svg">
<rect width="48" height="48" rx="4" fill="#3663EF" fill-opacity="0.2"/>
<rect x="8" y="8" width="48" height="48" rx="4" fill="#3663EF"/>
<g clip-path="url(#clip0_27_73705)">
<path d="M26.6482 27.3333C32.7733 27.3333 37.35 24.9954 37.35 22.905C37.35 20.8148 32.7732 18.4768 26.6482 18.4768C20.5232 18.4768 15.9465 20.8148 15.9465 22.905C15.9465 24.9954 20.5231 27.3333 26.6482 27.3333ZM26.6482 45.047C27.5422 45.047 28.4027 44.9968 29.2211 44.9053C28.5259 44.0431 27.9579 43.0919 27.5332 42.079C27.2395 42.0885 26.9448 42.0951 26.6481 42.0951C23.1482 42.0951 19.8338 41.4256 17.3156 40.2098C16.8198 39.9705 16.3635 39.7133 15.9465 39.441V40.6188C15.9465 42.709 20.5231 45.047 26.6482 45.047ZM26.6482 39.1424C26.6796 39.1424 26.7105 39.1419 26.7418 39.1418C26.6782 38.652 26.6464 38.1588 26.6464 37.6652C26.6464 37.1654 26.679 36.6729 26.7418 36.1894C26.7105 36.1894 26.6795 36.1905 26.6482 36.1905C23.1483 36.1905 19.834 35.5209 17.3157 34.3052C16.8198 34.0658 16.3634 33.8086 15.9464 33.5365V34.7141C15.9465 36.8045 20.5231 39.1424 26.6482 39.1424ZM26.6482 33.2377C26.9516 33.2377 27.2508 33.2318 27.5464 33.2206C28.0179 32.1045 28.6634 31.0646 29.4605 30.1369C28.5266 30.2362 27.5877 30.2859 26.6482 30.286C23.1483 30.286 19.834 29.6164 17.3157 28.4007C16.8198 28.1612 16.3634 27.9041 15.9464 27.6319V28.8096C15.9465 30.8999 20.5231 33.2377 26.6482 33.2377ZM31.2354 32.7719C30.562 33.7481 30.0973 34.8444 29.8686 35.9964C29.7594 36.5464 29.7045 37.1052 29.7046 37.6652C29.7046 38.094 29.737 38.5157 29.7983 38.9284C29.9459 39.9227 30.269 40.8852 30.7535 41.7742C31.251 42.6871 31.909 43.5097 32.6981 44.2053C34.3299 45.6444 36.5002 46.5233 38.8791 46.5233C43.9379 46.5233 48.0536 42.5496 48.0536 37.6652C48.0536 32.7807 43.9379 28.8071 38.8791 28.8071C38.3563 28.8071 37.8436 28.8502 37.3443 28.9317C34.8011 29.3469 32.6107 30.7759 31.2354 32.7719Z" fill="white"/>
</g>
<defs>
<clipPath id="clip0_27_73705">
<rect width="32.1071" height="31" fill="white" transform="translate(15.9464 17)"/>
</clipPath>
</defs>
</svg>
