<svg width="804" height="529" viewBox="0 0 804 529" fill="none" xmlns="http://www.w3.org/2000/svg">
<path d="M401.646 528.354C401.842 528.549 402.158 528.549 402.354 528.354L405.536 525.172C405.731 524.976 405.731 524.66 405.536 524.464C405.34 524.269 405.024 524.269 404.828 524.464L402 527.293L399.172 524.464C398.976 524.269 398.66 524.269 398.464 524.464C398.269 524.66 398.269 524.976 398.464 525.172L401.646 528.354ZM402.5 528V7H401.5V528H402.5Z" fill="#3663EF"/>
<circle cx="7" cy="7" r="6.5" transform="matrix(-1 0 0 1 409 0)" fill="#292929" stroke="#3663EF"/>
<path d="M6.64644 132.354C6.8417 132.549 7.15829 132.549 7.35355 132.354L10.5355 129.172C10.7308 128.976 10.7308 128.66 10.5355 128.464C10.3403 128.269 10.0237 128.269 9.82842 128.464L6.99999 131.293L4.17157 128.464C3.97631 128.269 3.65972 128.269 3.46446 128.464C3.2692 128.66 3.2692 128.976 3.46446 129.172L6.64644 132.354ZM6.5 6L6.49999 132L7.49999 132L7.5 6L6.5 6Z" fill="#3663EF"/>
<circle cx="7" cy="7" r="6.5" fill="#292929" stroke="#3663EF"/>
<path d="M796.646 132.354C796.842 132.549 797.158 132.549 797.354 132.354L800.536 129.172C800.731 128.976 800.731 128.66 800.536 128.464C800.34 128.269 800.024 128.269 799.828 128.464L797 131.293L794.172 128.464C793.976 128.269 793.66 128.269 793.464 128.464C793.269 128.66 793.269 128.976 793.464 129.172L796.646 132.354ZM796.5 6L796.5 132L797.5 132L797.5 6L796.5 6Z" fill="#3663EF"/>
<circle cx="797" cy="7" r="6.5" fill="#292929" stroke="#3663EF"/>
<path d="M364.5 7C364.5 6.72386 364.276 6.5 364 6.5C363.724 6.5 363.5 6.72386 363.5 7H364.5ZM335.646 423.646C335.451 423.842 335.451 424.158 335.646 424.354L338.828 427.536C339.024 427.731 339.34 427.731 339.536 427.536C339.731 427.34 339.731 427.024 339.536 426.828L336.707 424L339.536 421.172C339.731 420.976 339.731 420.66 339.536 420.464C339.34 420.269 339.024 420.269 338.828 420.464L335.646 423.646ZM363.5 7V420H364.5V7H363.5ZM360 423.5H336V424.5H360V423.5ZM363.5 420C363.5 421.933 361.933 423.5 360 423.5V424.5C362.485 424.5 364.5 422.485 364.5 420H363.5Z" fill="#3663EF"/>
<circle cx="364" cy="7" r="6.5" fill="#292929" stroke="#3663EF"/>
<path d="M439.5 7C439.5 6.72386 439.724 6.5 440 6.5C440.276 6.5 440.5 6.72386 440.5 7H439.5ZM468.354 423.646C468.549 423.842 468.549 424.158 468.354 424.354L465.172 427.536C464.976 427.731 464.66 427.731 464.464 427.536C464.269 427.34 464.269 427.024 464.464 426.828L467.293 424L464.464 421.172C464.269 420.976 464.269 420.66 464.464 420.464C464.66 420.269 464.976 420.269 465.172 420.464L468.354 423.646ZM440.5 7V420H439.5V7H440.5ZM444 423.5H468V424.5H444V423.5ZM440.5 420C440.5 421.933 442.067 423.5 444 423.5V424.5C441.515 424.5 439.5 422.485 439.5 420H440.5Z" fill="#3663EF"/>
<circle cx="7" cy="7" r="6.5" transform="matrix(-1 0 0 1 447 0)" fill="#292929" stroke="#3663EF"/>
</svg>
