<svg width="56" height="56" viewBox="0 0 56 56" fill="none" xmlns="http://www.w3.org/2000/svg">
<rect width="48" height="48" rx="4" fill="#3663EF" fill-opacity="0.2"/>
<rect x="8" y="8" width="48" height="48" rx="4" fill="#3663EF"/>
<path d="M38.831 43.043C38.6386 43.0412 38.4479 43.0795 38.271 43.1555L36.6935 41.3005C36.5737 41.1574 36.4239 41.0423 36.2548 40.9634C36.0856 40.8846 35.9012 40.8438 35.7145 40.844H33.3795V38.956C33.3812 38.7155 33.2918 38.4834 33.1293 38.3061C32.9668 38.1289 32.7432 38.0197 32.5035 38.0005C25.1735 37.2625 25.1765 26.9005 32.5035 26.1645C32.7432 26.1452 32.9667 26.0359 33.1291 25.8585C33.2915 25.6812 33.3808 25.449 33.379 25.2085V24.0975H32.9085C32.7863 24.0935 32.6705 24.0422 32.5854 23.9543C32.5004 23.8665 32.4529 23.749 32.4529 23.6267C32.4529 23.5045 32.5004 23.387 32.5854 23.2992C32.6705 23.2113 32.7863 23.16 32.9085 23.156H35.7145C35.9007 23.156 36.0846 23.1156 36.2537 23.0375C36.4227 22.9595 36.5728 22.8457 36.6935 22.704L38.271 20.849C40.46 21.638 41.185 18.1285 38.831 18C38.5713 18.0028 38.3168 18.0736 38.0929 18.2054C37.8691 18.3371 37.6836 18.5252 37.5551 18.751C37.4265 18.9767 37.3593 19.2321 37.3602 19.4919C37.361 19.7517 37.43 20.0067 37.56 20.2315L35.978 22.0915C35.9457 22.1299 35.9054 22.1608 35.8599 22.1819C35.8143 22.2029 35.7647 22.2137 35.7145 22.2135H33.3795V19.8415C33.3787 19.5919 33.2791 19.3527 33.1025 19.1763C32.9259 18.9999 32.6867 18.9005 32.437 18.9H30.191C29.788 18.9007 29.4018 19.061 29.1168 19.3459C28.8318 19.6308 28.6713 20.017 28.6705 20.42V22.3225C28.6661 22.5664 28.5986 22.805 28.4744 23.015C28.3503 23.2249 28.1738 23.3991 27.9622 23.5205C27.7507 23.6419 27.5112 23.7064 27.2673 23.7076C27.0234 23.7088 26.7833 23.6468 26.5705 23.5275L24.9275 22.5815C24.5772 22.3804 24.1614 22.3264 23.7713 22.4314C23.3812 22.5363 23.0486 22.7917 22.8465 23.1415L20.1305 27.845C19.9318 28.1952 19.8791 28.6096 19.9839 28.9983C20.0888 29.387 20.3427 29.7188 20.6905 29.9215L22.3245 30.8675C22.5342 30.9935 22.7077 31.1716 22.8281 31.3845C22.9486 31.5974 23.0119 31.8379 23.0119 32.0825C23.0119 32.3271 22.9486 32.5676 22.8281 32.7805C22.7077 32.9934 22.5342 33.1715 22.3245 33.2975L20.6955 34.2435C20.3454 34.4452 20.0894 34.7774 19.9835 35.1674C19.8776 35.5574 19.9305 35.9734 20.1305 36.3245L22.847 41.023C23.0491 41.3728 23.3817 41.6282 23.7718 41.7331C24.1619 41.8381 24.5777 41.7841 24.928 41.583L26.5995 40.618C26.8139 40.4961 27.0575 40.4352 27.304 40.4418C27.5505 40.4484 27.7905 40.5223 27.998 40.6555C28.2027 40.7788 28.3721 40.9528 28.4899 41.1606C28.6078 41.3684 28.6702 41.6031 28.671 41.842V43.744C28.6715 44.1471 28.8319 44.5336 29.1169 44.8187C29.4019 45.1039 29.7884 45.2643 30.1915 45.265H32.4375C32.687 45.2642 32.926 45.1648 33.1024 44.9884C33.2788 44.812 33.3782 44.573 33.379 44.3235V42.7275H32.9085C32.7836 42.7275 32.6638 42.6779 32.5755 42.5895C32.4871 42.5012 32.4375 42.3814 32.4375 42.2565C32.4375 42.1316 32.4871 42.0118 32.5755 41.9235C32.6638 41.8351 32.7836 41.7855 32.9085 41.7855H35.7145C35.7646 41.7864 35.8139 41.7977 35.8593 41.8188C35.9046 41.8399 35.9451 41.8703 35.978 41.908L37.56 43.7725C37.3949 44.0537 37.3274 44.3816 37.3681 44.7052C37.4087 45.0288 37.5552 45.3298 37.7847 45.5615C38.0141 45.7932 38.3138 45.9425 38.6369 45.9862C38.9601 46.0299 39.2886 45.9655 39.5714 45.8031C39.8542 45.6407 40.0753 45.3893 40.2004 45.0882C40.3255 44.787 40.3476 44.453 40.2631 44.138C40.1786 43.823 39.9924 43.5448 39.7334 43.3467C39.4744 43.1486 39.1571 43.0421 38.831 43.043Z" fill="white"/>
<path d="M42.593 30.3826C42.2825 30.383 41.98 30.481 41.7283 30.6627C41.4765 30.8444 41.2882 31.1006 41.19 31.3951H33.379V29.4176H32.9085C32.7837 29.4174 32.664 29.3676 32.5757 29.2794C32.4875 29.1911 32.4378 29.0715 32.4375 28.9466C32.4367 28.885 32.4483 28.8238 32.4718 28.7669C32.4953 28.7099 32.5302 28.6583 32.5742 28.6152C32.6182 28.5721 32.6706 28.5383 32.7281 28.5161C32.7855 28.4938 32.8469 28.4834 32.9085 28.4856H35.7145C35.901 28.4847 36.0851 28.4433 36.2541 28.3645C36.4231 28.2856 36.573 28.171 36.6935 28.0286L38.271 26.1736C38.5957 26.3074 38.9574 26.3213 39.2915 26.213C39.6256 26.1046 39.9102 25.8809 40.0945 25.582C40.2788 25.2831 40.3509 24.9283 40.2977 24.5812C40.2446 24.234 40.0697 23.9171 39.8043 23.687C39.539 23.4569 39.2005 23.3287 38.8493 23.3253C38.4981 23.3218 38.1571 23.4434 37.8873 23.6682C37.6175 23.893 37.4365 24.2064 37.3765 24.5525C37.3165 24.8985 37.3816 25.2546 37.56 25.5571L35.978 27.4216C35.9451 27.4593 35.9046 27.4897 35.8592 27.5108C35.8139 27.5319 35.7645 27.5433 35.7145 27.5441H33.2235C33.1257 27.3993 32.9904 27.2839 32.8321 27.2101C32.6737 27.1362 32.4983 27.1069 32.3245 27.1251C26.482 27.9536 26.482 36.2116 32.3245 37.0401C32.523 37.0623 32.7234 37.0209 32.8968 36.9219C33.0702 36.8228 33.2077 36.6713 33.2895 36.4891H32.9085C32.7863 36.4851 32.6704 36.4338 32.5854 36.3459C32.5004 36.2581 32.4528 36.1406 32.4528 36.0184C32.4528 35.8961 32.5004 35.7786 32.5854 35.6908C32.6704 35.6029 32.7863 35.5516 32.9085 35.5476C33.1765 35.5426 35.3895 35.5526 35.7145 35.5476C35.7645 35.5485 35.8139 35.5598 35.8592 35.5809C35.9046 35.602 35.9451 35.6324 35.978 35.6701L37.56 37.5346C36.444 39.7756 40.1165 40.7831 40.3095 38.2876C40.3078 38.0456 40.2471 37.8076 40.1325 37.5943C40.018 37.3811 39.8531 37.1991 39.6522 37.064C39.4513 36.929 39.2205 36.8451 38.9798 36.8196C38.739 36.7941 38.4957 36.8277 38.271 36.9176L36.6935 35.0626C36.5737 34.9195 36.4239 34.8044 36.2547 34.7256C36.0856 34.6467 35.9012 34.6059 35.7145 34.6061H33.3795V33.2736H32.9085C32.7873 33.272 32.6714 33.2234 32.5852 33.1382C32.499 33.0529 32.4491 32.9376 32.4461 32.8164C32.443 32.6952 32.4871 32.5775 32.5689 32.4881C32.6507 32.3986 32.764 32.3444 32.885 32.3366H41.19C41.2772 32.5944 41.4337 32.8232 41.6425 32.9978C41.8513 33.1725 42.1041 33.2861 42.3733 33.3264C42.6425 33.3666 42.9175 33.3318 43.1682 33.2259C43.4189 33.1199 43.6355 32.9469 43.7942 32.7258C43.953 32.5047 44.0477 32.2442 44.0679 31.9728C44.0882 31.7014 44.0332 31.4296 43.9091 31.1874C43.7849 30.9453 43.5964 30.742 43.3642 30.6C43.132 30.458 42.8652 30.3828 42.593 30.3826Z" fill="white"/>
</svg>
