<svg width="24" height="1023" viewBox="0 0 24 1023" fill="none" xmlns="http://www.w3.org/2000/svg">
<path d="M17.3536 6.79391C17.1583 6.59865 16.8417 6.59865 16.6464 6.79391L13.4645 9.97589C13.2692 10.1712 13.2692 10.4877 13.4645 10.683C13.6597 10.8783 13.9763 10.8783 14.1716 10.683L17 7.85457L19.8284 10.683C20.0237 10.8783 20.3403 10.8783 20.5355 10.683C20.7308 10.4877 20.7308 10.1712 20.5355 9.97589L17.3536 6.79391ZM0.646447 1018.65C0.451184 1018.84 0.451184 1019.16 0.646447 1019.35L3.82843 1022.54C4.02369 1022.73 4.34027 1022.73 4.53553 1022.54C4.7308 1022.34 4.7308 1022.02 4.53553 1021.83L1.70711 1019L4.53553 1016.17C4.7308 1015.98 4.7308 1015.66 4.53553 1015.46C4.34027 1015.27 4.02369 1015.27 3.82843 1015.46L0.646447 1018.65ZM0.646447 821.897C0.451184 822.093 0.451184 822.409 0.646447 822.604L3.82843 825.786C4.02369 825.982 4.34027 825.982 4.53553 825.786C4.7308 825.591 4.7308 825.275 4.53553 825.079L1.70711 822.251L4.53553 819.422C4.7308 819.227 4.7308 818.911 4.53553 818.715C4.34027 818.52 4.02369 818.52 3.82843 818.715L0.646447 821.897ZM0.646447 616.425C0.451184 616.621 0.451184 616.937 0.646447 617.132L3.82843 620.314C4.02369 620.51 4.34027 620.51 4.53553 620.314C4.7308 620.119 4.7308 619.803 4.53553 619.607L1.70711 616.779L4.53553 613.95C4.7308 613.755 4.7308 613.439 4.53553 613.243C4.34027 613.048 4.02369 613.048 3.82843 613.243L0.646447 616.425ZM0.646447 389.631C0.451184 389.826 0.451184 390.143 0.646447 390.338L3.82843 393.52C4.02369 393.715 4.34027 393.715 4.53553 393.52C4.7308 393.325 4.7308 393.008 4.53553 392.813L1.70711 389.984L4.53553 387.156C4.7308 386.961 4.7308 386.644 4.53553 386.449C4.34027 386.254 4.02369 386.254 3.82843 386.449L0.646447 389.631ZM0.646447 152.175C0.451184 152.37 0.451184 152.687 0.646447 152.882L3.82843 156.064C4.02369 156.259 4.34027 156.259 4.53553 156.064C4.7308 155.869 4.7308 155.552 4.53553 155.357L1.70711 152.529L4.53553 149.7C4.7308 149.505 4.7308 149.188 4.53553 148.993C4.34027 148.798 4.02369 148.798 3.82843 148.993L0.646447 152.175ZM13 1018.5H1V1019.5H13V1018.5ZM16.5 822.251V1015H17.5V822.251H16.5ZM17 821.751H1V822.751H17V821.751ZM16.5 616.779V822.251H17.5V616.779H16.5ZM17 616.279H1V617.279H17V616.279ZM16.5 389.984V616.779H17.5V389.984H16.5ZM17 389.484H1V390.484H17V389.484ZM16.5 7.14746V152.529H17.5V7.14746H16.5ZM16.5 152.529V389.984H17.5V152.529H16.5ZM17 152.029H1V153.029H17V152.029ZM13 1019.5C15.4853 1019.5 17.5 1017.49 17.5 1015H16.5C16.5 1016.93 14.933 1018.5 13 1018.5V1019.5Z" fill="#3663EF"/>
<circle cx="16.9268" cy="7.07326" r="6.57326" fill="#292929" stroke="#3663EF"/>
</svg>
