<svg width="56" height="56" viewBox="0 0 56 56" fill="none" xmlns="http://www.w3.org/2000/svg">
<rect width="48" height="48" rx="4" fill="#3663EF" fill-opacity="0.2"/>
<rect x="8" y="8" width="48" height="48" rx="4" fill="#3663EF"/>
<g clip-path="url(#clip0_27_73726)">
<path d="M45.3333 22.6666H38.6667V21.3332C38.6667 19.8625 37.4708 18.6665 36 18.6665H28C26.5293 18.6665 25.3333 19.8624 25.3333 21.3332V22.6665H18.6667C17.1959 22.6666 16 23.8625 16 25.3332V29.3332C16 30.8039 17.1959 31.9999 18.6667 31.9999H29.3334V31.3332C29.3333 31.2456 29.3505 31.1589 29.384 31.078C29.4175 30.9971 29.4666 30.9236 29.5285 30.8616C29.5904 30.7997 29.664 30.7506 29.7449 30.7171C29.8258 30.6837 29.9125 30.6664 30.0001 30.6665H34.0001C34.0876 30.6664 34.1743 30.6837 34.2553 30.7171C34.3362 30.7506 34.4097 30.7997 34.4716 30.8616C34.5335 30.9236 34.5826 30.9971 34.6161 31.078C34.6496 31.1589 34.6668 31.2456 34.6667 31.3332V31.9999H45.3334C46.8041 31.9999 48 30.8039 48 29.3332V25.3332C48 23.8625 46.8041 22.6666 45.3333 22.6666ZM36 22.6666H28V21.3332H36V22.6666ZM47.6302 32.7193C47.519 32.6642 47.3947 32.6411 47.2712 32.6527C47.1477 32.6643 47.0299 32.7101 46.9309 32.785C46.457 33.1438 45.9049 33.3332 45.3333 33.3332H34.6667V35.3332C34.6667 35.4208 34.6495 35.5075 34.6161 35.5884C34.5826 35.6693 34.5335 35.7428 34.4715 35.8047C34.4096 35.8667 34.3361 35.9158 34.2552 35.9492C34.1743 35.9827 34.0876 35.9999 34 35.9999H30C29.9124 35.9999 29.8257 35.9827 29.7448 35.9492C29.6639 35.9158 29.5904 35.8667 29.5285 35.8047C29.4665 35.7428 29.4174 35.6693 29.3839 35.5884C29.3505 35.5075 29.3333 35.4208 29.3333 35.3332V33.3332H18.6667C18.0951 33.3332 17.543 33.1438 17.069 32.785C16.9703 32.7096 16.8525 32.6634 16.7288 32.6518C16.6052 32.6401 16.4807 32.6635 16.3698 32.7193C16.2587 32.7745 16.1652 32.8597 16.0999 32.9651C16.0346 33.0706 16 33.1922 16 33.3163V42.6666C16 44.1373 17.1959 45.3333 18.6667 45.3333H45.3334C46.8041 45.3333 48.0001 44.1373 48.0001 42.6666V33.3163C48.0001 33.1922 47.9655 33.0706 47.9001 32.9651C47.8348 32.8597 47.7413 32.7745 47.6302 32.7193Z" fill="white"/>
</g>
<defs>
<clipPath id="clip0_27_73726">
<rect width="32" height="32" fill="white" transform="translate(16 16)"/>
</clipPath>
</defs>
</svg>
