<svg width="56" height="56" viewBox="0 0 56 56" fill="none" xmlns="http://www.w3.org/2000/svg">
<rect width="48" height="48" rx="4" fill="#3663EF" fill-opacity="0.2"/>
<rect x="8" y="8" width="48" height="48" rx="4" fill="#3663EF"/>
<g clip-path="url(#clip0_60_186)">
<path d="M32.5303 47.5463C32.4148 47.5463 32.3039 47.5005 32.2215 47.4187C32.1392 47.337 32.0919 47.226 32.0899 47.1095C32.0879 46.993 32.1314 46.8803 32.211 46.7958C32.2905 46.7113 32.3998 46.6617 32.5153 46.6577C32.8525 46.6459 33.193 46.622 33.5277 46.5868C33.7699 46.5606 33.9864 46.7387 34.0116 46.9828C34.0176 47.0408 34.0122 47.0995 33.9958 47.1554C33.9793 47.2114 33.952 47.2635 33.9156 47.3088C33.8791 47.3541 33.8342 47.3918 33.7833 47.4196C33.7324 47.4474 33.6766 47.4648 33.6191 47.4708C33.2644 47.5082 32.9033 47.5334 32.5458 47.546C32.5407 47.5462 32.5355 47.5463 32.5303 47.5463ZM30.4425 47.4748C30.4273 47.4748 30.4121 47.474 30.3967 47.4725C30.0414 47.4355 29.6828 47.3853 29.3308 47.3235C29.2738 47.3134 29.2193 47.2922 29.1705 47.2609C29.1216 47.2297 29.0793 47.189 29.046 47.1413C29.0127 47.0935 28.9891 47.0396 28.9765 46.9827C28.9638 46.9257 28.9625 46.8668 28.9724 46.8093C28.9823 46.7518 29.0034 46.6969 29.0344 46.6476C29.0654 46.5983 29.1057 46.5557 29.153 46.5221C29.2004 46.4885 29.2538 46.4647 29.3103 46.4519C29.3668 46.4392 29.4252 46.4378 29.4822 46.4478C29.8141 46.5061 30.1523 46.5534 30.4873 46.5884C30.5995 46.6002 30.7029 46.6549 30.7763 46.7414C30.8497 46.8278 30.8874 46.9394 30.8816 47.053C30.8759 47.1667 30.8272 47.2738 30.7455 47.3522C30.6638 47.4307 30.5553 47.4746 30.4425 47.4748ZM35.6312 47.1088C35.5329 47.1087 35.4375 47.0754 35.3601 47.0143C35.2827 46.9533 35.2277 46.8678 35.2039 46.7716C35.1899 46.715 35.1871 46.6561 35.1957 46.5984C35.2043 46.5407 35.224 46.4852 35.2539 46.4352C35.2837 46.3852 35.323 46.3416 35.3695 46.3069C35.4161 46.2722 35.4689 46.2471 35.5251 46.233C35.8533 46.1505 36.1786 46.0565 36.5003 45.951C36.6115 45.9146 36.7324 45.9242 36.8366 45.9776C36.9407 46.0311 37.0195 46.1242 37.0557 46.2363C37.0918 46.3484 37.0823 46.4704 37.0293 46.5754C36.9762 46.6804 36.884 46.7599 36.7728 46.7964C36.4315 46.9082 36.0863 47.008 35.738 47.0955C35.7023 47.1045 35.6666 47.1088 35.6312 47.1088ZM27.3783 46.823C27.3333 46.823 27.2876 46.8161 27.2424 46.8013C26.9004 46.6896 26.5624 46.5657 26.2291 46.43C26.1207 46.3858 26.0342 46.3 25.9885 46.1915C25.9428 46.083 25.9418 45.9607 25.9856 45.8514C26.0293 45.7421 26.1144 45.6548 26.222 45.6088C26.3295 45.5627 26.4509 45.5616 26.5592 45.6058C26.8733 45.7337 27.1917 45.8503 27.5139 45.9556C27.6139 45.9882 27.699 46.0557 27.7539 46.1459C27.8089 46.2361 27.8301 46.3432 27.8138 46.4478C27.7974 46.5524 27.7446 46.6477 27.6647 46.7165C27.5849 46.7853 27.4833 46.8231 27.3783 46.823ZM38.5741 46.0275C38.4916 46.0275 38.4107 46.0042 38.3406 45.9601C38.2706 45.916 38.2142 45.853 38.178 45.7782C38.1525 45.7258 38.1376 45.6688 38.134 45.6106C38.1304 45.5523 38.1382 45.4939 38.1569 45.4387C38.1757 45.3835 38.2051 45.3326 38.2434 45.2888C38.2817 45.2451 38.3282 45.2094 38.3802 45.1837C38.6838 45.0338 38.9822 44.8733 39.2749 44.7026C39.376 44.6448 39.4956 44.6296 39.6077 44.6603C39.7198 44.691 39.8154 44.7651 39.8736 44.8665C39.9318 44.9679 39.948 45.0884 39.9185 45.2018C39.8891 45.3152 39.8165 45.4122 39.7165 45.4718C39.4061 45.6529 39.0895 45.8231 38.7674 45.9821C38.7073 46.0119 38.6412 46.0274 38.5741 46.0275ZM24.5146 45.5378C24.4373 45.5377 24.3614 45.5171 24.2945 45.478C23.9836 45.2968 23.6791 45.1047 23.3814 44.9021C23.3335 44.8695 23.2923 44.8276 23.2604 44.7789C23.2285 44.7303 23.2064 44.6757 23.1953 44.6184C23.1843 44.5611 23.1846 44.5022 23.1961 44.445C23.2077 44.3878 23.2303 44.3335 23.2627 44.2851C23.295 44.2367 23.3365 44.1953 23.3848 44.1631C23.4331 44.1309 23.4871 44.1086 23.544 44.0974C23.6008 44.0863 23.6592 44.0866 23.7159 44.0982C23.7726 44.1099 23.8265 44.1327 23.8745 44.1653C24.1551 44.3564 24.4423 44.5375 24.7354 44.7084C24.8195 44.7573 24.8853 44.8328 24.9224 44.9233C24.9595 45.0138 24.966 45.1141 24.9408 45.2086C24.9157 45.3032 24.8602 45.3867 24.7831 45.4462C24.7061 45.5057 24.6117 45.5379 24.5146 45.5378ZM41.2268 44.3515C41.1351 44.3514 41.0456 44.3226 40.971 44.2689C40.8963 44.2152 40.8401 44.1393 40.8102 44.0519C40.7803 43.9645 40.7781 43.8698 40.8041 43.7811C40.83 43.6924 40.8827 43.6141 40.9549 43.557C41.2213 43.3466 41.4804 43.1271 41.7318 42.8987C41.8186 42.8197 41.9329 42.7788 42.0497 42.7849C42.1664 42.791 42.2759 42.8436 42.3542 42.9312C42.4325 43.0188 42.473 43.1341 42.467 43.2518C42.4609 43.3695 42.4088 43.48 42.3219 43.5589C42.0554 43.8011 41.7806 44.034 41.4981 44.2571C41.4207 44.3183 41.3251 44.3515 41.2268 44.3515ZM21.9808 43.6802C21.8719 43.6803 21.7669 43.6396 21.6861 43.5661C21.4195 43.324 21.1611 43.0726 20.9116 42.8125C20.8311 42.7277 20.7871 42.6141 20.7893 42.4967C20.7916 42.3792 20.8398 42.2675 20.9235 42.1858C21.0072 42.1041 21.1196 42.0592 21.2361 42.0608C21.3525 42.0624 21.4636 42.1105 21.545 42.1945C21.7804 42.4398 22.0241 42.6769 22.2757 42.9053C22.3419 42.9655 22.3886 43.0445 22.4094 43.1319C22.4302 43.2193 22.4243 43.3111 22.3923 43.395C22.3604 43.4789 22.3039 43.5511 22.2305 43.6021C22.157 43.653 22.0699 43.6802 21.9808 43.6802ZM43.4785 42.1571C43.3946 42.157 43.3125 42.1328 43.2418 42.0873C43.171 42.0418 43.1147 41.9769 43.0793 41.9003C43.0439 41.8236 43.0309 41.7383 43.0419 41.6544C43.0528 41.5706 43.0873 41.4916 43.1412 41.4268C43.3589 41.1653 43.5675 40.8963 43.7668 40.6204C43.8362 40.5268 43.9394 40.4646 44.0539 40.4472C44.1684 40.4298 44.2852 40.4586 44.3789 40.5273C44.4725 40.596 44.5356 40.6992 44.5544 40.8144C44.5733 40.9297 44.5463 41.0478 44.4795 41.1432C44.2683 41.4359 44.0471 41.7211 43.8163 41.9983C43.7749 42.0481 43.7232 42.0881 43.6648 42.1155C43.6065 42.143 43.5428 42.1571 43.4785 42.1571ZM19.8838 41.3351C19.8142 41.3352 19.7457 41.3187 19.6837 41.2869C19.6218 41.2552 19.5681 41.2091 19.5272 41.1524C19.3161 40.86 19.115 40.5604 18.9243 40.254C18.8936 40.2046 18.8728 40.1495 18.8631 40.092C18.8534 40.0344 18.8551 39.9755 18.868 39.9186C18.8809 39.8617 18.9048 39.808 18.9384 39.7604C18.9719 39.7128 19.0144 39.6724 19.0634 39.6413C19.1124 39.6103 19.167 39.5893 19.2241 39.5796C19.2811 39.5699 19.3395 39.5715 19.396 39.5846C19.4524 39.5976 19.5057 39.6217 19.5529 39.6555C19.6 39.6893 19.6402 39.7322 19.6709 39.7816C19.8508 40.0705 20.0404 40.3531 20.2396 40.6289C20.2874 40.6952 20.3162 40.7735 20.3227 40.8552C20.3292 40.937 20.3131 41.0189 20.2763 41.092C20.2395 41.1651 20.1833 41.2265 20.114 41.2694C20.0448 41.3123 19.9651 41.3351 19.8838 41.3351ZM45.2321 39.5391C45.156 39.5391 45.0812 39.5192 45.0151 39.4814C44.9489 39.4435 44.8935 39.3891 44.8544 39.3233C44.8152 39.2575 44.7937 39.1826 44.7917 39.1059C44.7898 39.0292 44.8076 38.9533 44.8434 38.8856C45.0026 38.5841 45.1513 38.2772 45.2893 37.9652C45.3369 37.8576 45.4249 37.7734 45.5341 37.7312C45.6432 37.6891 45.7645 37.6923 45.8712 37.7404C45.978 37.7884 46.0614 37.8772 46.1033 37.9872C46.1451 38.0973 46.1418 38.2196 46.0942 38.3273C45.9479 38.6582 45.7902 38.9838 45.6214 39.3036C45.5838 39.3748 45.5277 39.4343 45.4591 39.4758C45.3906 39.5173 45.3121 39.5392 45.2321 39.5391ZM18.3143 38.604C18.2292 38.604 18.1459 38.5792 18.0744 38.5325C18.003 38.4858 17.9465 38.4192 17.9117 38.3408C17.7655 38.0107 17.6308 37.6755 17.5078 37.3359C17.4874 37.281 17.478 37.2225 17.4801 37.1639C17.4822 37.1052 17.4958 37.0476 17.5202 36.9943C17.5445 36.941 17.579 36.8931 17.6218 36.8533C17.6645 36.8135 17.7147 36.7827 17.7693 36.7626C17.824 36.7425 17.882 36.7334 17.9402 36.7361C17.9983 36.7387 18.0553 36.7529 18.1079 36.7778C18.1606 36.8028 18.2078 36.838 18.2469 36.8815C18.286 36.9249 18.3161 36.9757 18.3357 37.031C18.4516 37.3511 18.5786 37.6669 18.7164 37.978C18.7641 38.0857 18.7674 38.2079 18.7257 38.318C18.6839 38.4281 18.6005 38.517 18.4939 38.5651C18.4374 38.5907 18.3762 38.604 18.3143 38.604ZM46.4072 36.6089C46.339 36.6089 46.2716 36.593 46.2105 36.5623C46.1495 36.5316 46.0963 36.4871 46.0552 36.4321C46.014 36.3772 45.9862 36.3134 45.9737 36.2457C45.9612 36.1781 45.9644 36.1084 45.9832 36.0422C46.0761 35.7142 46.1577 35.3829 46.2278 35.0492C46.2397 34.992 46.2627 34.9378 46.2954 34.8897C46.3281 34.8415 46.3699 34.8004 46.4184 34.7685C46.4669 34.7367 46.5212 34.7148 46.5781 34.7041C46.635 34.6934 46.6934 34.6942 46.75 34.7063C46.8067 34.7184 46.8604 34.7416 46.9081 34.7746C46.9558 34.8076 46.9966 34.8498 47.0282 34.8987C47.0598 34.9476 47.0815 35.0023 47.0921 35.0597C47.1027 35.117 47.102 35.176 47.09 35.2331C47.0157 35.5872 46.9292 35.9386 46.8306 36.2866C46.8043 36.3794 46.7487 36.461 46.6724 36.5192C46.596 36.5773 46.5029 36.6088 46.4072 36.6089ZM17.3442 35.6024C17.2433 35.6023 17.1455 35.5673 17.0671 35.5032C16.9888 35.4391 16.9346 35.3498 16.9136 35.2503C16.839 34.8962 16.7768 34.5397 16.7268 34.1812C16.711 34.0647 16.7417 33.9466 16.8121 33.8529C16.8824 33.7591 16.9868 33.6973 17.1022 33.6809C17.2177 33.6646 17.3349 33.6951 17.4281 33.7657C17.5214 33.8364 17.583 33.9414 17.5996 34.0578C17.6463 34.394 17.7056 34.7331 17.7756 35.0654C17.7893 35.1302 17.7884 35.1973 17.7731 35.2617C17.7577 35.3261 17.7283 35.3863 17.687 35.4377C17.6456 35.4892 17.5934 35.5307 17.5341 35.5592C17.4748 35.5877 17.4099 35.6024 17.3442 35.6024ZM46.9477 33.4981C46.8873 33.4982 46.8274 33.4857 46.7719 33.4615C46.7165 33.4372 46.6665 33.4017 46.6252 33.3571C46.584 33.3126 46.5522 33.2599 46.532 33.2025C46.5117 33.145 46.5034 33.084 46.5076 33.0231C46.5307 32.6851 46.5424 32.3409 46.5424 32L46.5423 31.9658C46.5423 31.8479 46.5887 31.7349 46.6714 31.6515C46.754 31.5682 46.8661 31.5213 46.983 31.5213C47.0999 31.5213 47.212 31.5682 47.2946 31.6515C47.3772 31.7349 47.4237 31.8479 47.4237 31.9658L47.4238 31.9966C47.4238 32.3612 47.4113 32.726 47.3869 33.0842C47.3793 33.1964 47.3297 33.3016 47.2482 33.3784C47.1667 33.4552 47.0593 33.498 46.9477 33.4981ZM17.017 32.4615C16.9001 32.4615 16.788 32.4147 16.7054 32.3313C16.6227 32.248 16.5763 32.1349 16.5763 32.0171V32.0034C16.5763 31.6452 16.5883 31.2864 16.612 30.9333C16.6201 30.8158 16.674 30.7063 16.762 30.6288C16.85 30.5513 16.9648 30.5121 17.0814 30.5199C17.198 30.5279 17.3067 30.5822 17.3836 30.671C17.4604 30.7598 17.4992 30.8757 17.4913 30.9933C17.4689 31.3284 17.4577 31.6642 17.4576 32V32.0171C17.4576 32.1349 17.4112 32.248 17.3286 32.3313C17.2459 32.4147 17.1338 32.4615 17.017 32.4615ZM46.8339 30.3081C46.7278 30.3079 46.6254 30.2692 46.5453 30.1989C46.4652 30.1287 46.413 30.0317 46.3981 29.9258C46.3507 29.588 46.2917 29.252 46.221 28.9184C46.1965 28.8031 46.2185 28.6828 46.2821 28.5838C46.3456 28.4849 46.4455 28.4155 46.5598 28.3908C46.6742 28.3662 46.7935 28.3884 46.8916 28.4525C46.9897 28.5166 47.0585 28.6173 47.0829 28.7326C47.1579 29.0866 47.2206 29.4431 47.2709 29.8014C47.2798 29.8645 47.2751 29.9287 47.2572 29.9898C47.2392 30.0508 47.2085 30.1073 47.1671 30.1553C47.1256 30.2034 47.0745 30.2419 47.017 30.2682C46.9595 30.2946 46.8971 30.3082 46.8339 30.3081ZM17.338 29.3203C17.2724 29.3203 17.2077 29.3056 17.1484 29.2772C17.0892 29.2488 17.0369 29.2074 16.9956 29.1561C16.9542 29.1047 16.9247 29.0447 16.9093 28.9804C16.8939 28.9161 16.8929 28.8491 16.9064 28.7844C16.9799 28.4316 17.0668 28.077 17.1647 27.7304C17.1967 27.617 17.2721 27.5212 17.3742 27.4638C17.4764 27.4065 17.5969 27.3925 17.7093 27.4248C17.8217 27.4571 17.9167 27.5331 17.9736 27.6361C18.0304 27.7391 18.0443 27.8607 18.0123 27.974C17.9197 28.3022 17.8385 28.6334 17.7689 28.9673C17.748 29.067 17.6939 29.1565 17.6154 29.2207C17.537 29.285 17.4391 29.3201 17.338 29.3203ZM46.0725 27.2451C45.9822 27.245 45.8941 27.2171 45.8201 27.1649C45.7461 27.1127 45.6898 27.0389 45.6587 26.9534C45.5424 26.6335 45.415 26.3179 45.2769 26.0069C45.2532 25.9537 45.2401 25.8962 45.2385 25.8379C45.2368 25.7796 45.2466 25.7215 45.2672 25.6669C45.2878 25.6124 45.3188 25.5624 45.3585 25.52C45.3983 25.4776 45.4459 25.4434 45.4987 25.4196C45.5515 25.3957 45.6085 25.3825 45.6663 25.3808C45.7241 25.3792 45.7818 25.389 45.8358 25.4098C45.8899 25.4305 45.9394 25.4619 45.9815 25.5019C46.0236 25.542 46.0574 25.59 46.0811 25.6433C46.2277 25.9732 46.3628 26.3082 46.4863 26.6476C46.5107 26.7148 46.5186 26.7869 46.5095 26.8579C46.5004 26.9288 46.4744 26.9965 46.4338 27.0551C46.3931 27.1138 46.3391 27.1617 46.2762 27.1947C46.2133 27.2278 46.1434 27.2451 46.0725 27.2451ZM18.3011 26.314C18.2277 26.3139 18.1555 26.2954 18.0909 26.26C18.0264 26.2247 17.9717 26.1736 17.9317 26.1115C17.8917 26.0494 17.8678 25.9783 17.862 25.9044C17.8562 25.8306 17.8688 25.7565 17.8987 25.6889C18.0447 25.3578 18.202 25.032 18.3706 24.712C18.3977 24.6605 18.4346 24.6148 18.4793 24.5777C18.5239 24.5405 18.5754 24.5126 18.6307 24.4955C18.686 24.4784 18.7442 24.4725 18.8018 24.4781C18.8594 24.4836 18.9153 24.5006 18.9664 24.528C19.0176 24.5554 19.0628 24.5926 19.0997 24.6376C19.1365 24.6827 19.1642 24.7346 19.1811 24.7904C19.198 24.8462 19.2039 24.9048 19.1984 24.9629C19.1929 25.021 19.176 25.0774 19.1489 25.129C18.9901 25.4306 18.8417 25.7378 18.7042 26.0499C18.6695 26.1285 18.613 26.1953 18.5414 26.2421C18.4699 26.289 18.3864 26.314 18.3011 26.314ZM44.6938 24.4123C44.6192 24.4124 44.5458 24.3933 44.4804 24.3569C44.4151 24.3205 44.36 24.268 44.3203 24.2043C44.1403 23.9155 43.9504 23.6332 43.751 23.3577C43.6836 23.2624 43.6561 23.1442 43.6746 23.0287C43.6931 22.9132 43.756 22.8097 43.8497 22.7406C43.9434 22.6716 44.0603 22.6426 44.175 22.66C44.2898 22.6773 44.3931 22.7396 44.4626 22.8333C44.6742 23.1255 44.8756 23.4249 45.0666 23.7312C45.0974 23.7806 45.1182 23.8357 45.1279 23.8932C45.1376 23.9508 45.136 24.0097 45.1231 24.0666C45.1103 24.1235 45.0864 24.1773 45.0529 24.2249C45.0194 24.2725 44.9769 24.313 44.9279 24.344C44.8579 24.3887 44.7767 24.4123 44.6938 24.4123ZM19.8667 23.5765C19.7854 23.5765 19.7057 23.5539 19.6364 23.511C19.5672 23.4682 19.511 23.4069 19.4741 23.3339C19.4372 23.2608 19.4211 23.1789 19.4275 23.0972C19.4339 23.0155 19.4626 22.9372 19.5104 22.8709C19.7213 22.578 19.9422 22.2925 20.1728 22.015C20.2099 21.9703 20.2555 21.9334 20.3068 21.9064C20.3581 21.8794 20.4142 21.8629 20.4718 21.8577C20.5295 21.8526 20.5876 21.859 20.6428 21.8765C20.698 21.894 20.7492 21.9223 20.7936 21.9598C20.8379 21.9973 20.8745 22.0432 20.9013 22.095C20.9281 22.1468 20.9444 22.2033 20.9495 22.2615C20.9546 22.3196 20.9483 22.3782 20.9309 22.4339C20.9136 22.4895 20.8855 22.5412 20.8483 22.586C20.6309 22.8477 20.4225 23.117 20.2236 23.3932C20.1827 23.4501 20.1291 23.4963 20.067 23.5282C20.005 23.5601 19.9363 23.5766 19.8667 23.5765ZM42.7599 21.9286C42.7008 21.9287 42.6424 21.9168 42.588 21.8935C42.5336 21.8703 42.4844 21.8362 42.4434 21.7934C42.2078 21.5483 41.9639 21.3116 41.7121 21.0836C41.6691 21.0446 41.634 20.9974 41.609 20.9448C41.584 20.8921 41.5696 20.835 41.5664 20.7767C41.5633 20.7185 41.5716 20.6601 41.5909 20.6051C41.6101 20.55 41.6399 20.4993 41.6785 20.4559C41.7172 20.4125 41.764 20.3771 41.8162 20.3519C41.8684 20.3267 41.925 20.3121 41.9828 20.309C42.0405 20.3058 42.0984 20.3142 42.153 20.3336C42.2075 20.353 42.2578 20.3831 42.3009 20.422C42.567 20.6629 42.8279 20.9163 43.0764 21.1749C43.1366 21.2376 43.1772 21.3168 43.1931 21.4027C43.2089 21.4885 43.1994 21.5771 43.1656 21.6575C43.1319 21.7379 43.0754 21.8065 43.0032 21.8547C42.9311 21.9029 42.8464 21.9286 42.7599 21.9286ZM21.9608 21.2271C21.8717 21.2271 21.7847 21.1999 21.7112 21.1491C21.6378 21.0982 21.5814 21.0261 21.5494 20.9423C21.5174 20.8584 21.5113 20.7668 21.532 20.6794C21.5527 20.592 21.5992 20.513 21.6653 20.4528C21.9316 20.2103 22.2061 19.9772 22.4883 19.7538C22.5803 19.6815 22.697 19.6489 22.8128 19.6632C22.9285 19.6775 23.034 19.7375 23.106 19.83C23.178 19.9226 23.2106 20.0401 23.1968 20.1569C23.183 20.2737 23.1239 20.3803 23.0323 20.4532C22.7661 20.6638 22.5072 20.8837 22.256 21.1124C22.1752 21.1864 22.0699 21.2272 21.9608 21.2271ZM40.3577 19.9012C40.2701 19.9012 40.1845 19.8748 40.1119 19.8253C39.8311 19.6346 39.5437 19.4538 39.2504 19.2833C39.2003 19.2541 39.1563 19.2153 39.121 19.169C39.0858 19.1228 39.0599 19.0699 39.0449 19.0136C39.0299 18.9572 39.026 18.8984 39.0335 18.8405C39.041 18.7826 39.0598 18.7268 39.0887 18.6763C39.1175 18.6257 39.156 18.5813 39.2019 18.5457C39.2478 18.5101 39.3002 18.484 39.3561 18.4688C39.412 18.4537 39.4703 18.4498 39.5277 18.4574C39.5851 18.465 39.6404 18.484 39.6906 18.5132C40.0016 18.6941 40.3064 18.8858 40.6043 19.088C40.6826 19.1412 40.742 19.2184 40.7735 19.3082C40.8051 19.398 40.8072 19.4956 40.7796 19.5867C40.752 19.6778 40.6961 19.7575 40.6201 19.8142C40.5441 19.8708 40.4521 19.9013 40.3577 19.9012ZM24.4902 19.366C24.3932 19.3661 24.2989 19.3339 24.2219 19.2745C24.1448 19.2151 24.0894 19.1317 24.0641 19.0372C24.0389 18.9428 24.0452 18.8426 24.0822 18.7522C24.1191 18.6618 24.1846 18.5861 24.2685 18.5371C24.5787 18.3555 24.895 18.185 25.217 18.0257C25.269 18 25.3255 17.9849 25.3832 17.9812C25.441 17.9775 25.4989 17.9853 25.5536 18.0042C25.6084 18.0231 25.6589 18.0527 25.7024 18.0912C25.7458 18.1298 25.7813 18.1767 25.8067 18.2291C25.8322 18.2815 25.8472 18.3384 25.8509 18.3967C25.8545 18.4549 25.8468 18.5133 25.828 18.5686C25.8093 18.6238 25.78 18.6748 25.7417 18.7186C25.7035 18.7624 25.657 18.7981 25.6051 18.8238C25.3016 18.974 25.0033 19.1348 24.7109 19.3059C24.6439 19.3452 24.5677 19.366 24.4902 19.366ZM37.5902 18.4203C37.5339 18.4202 37.4781 18.4093 37.4259 18.388C37.1127 18.2609 36.7913 18.1436 36.4706 18.0392C36.3594 18.003 36.267 17.9238 36.2137 17.8189C36.1604 17.714 36.1506 17.592 36.1865 17.4798C36.2224 17.3677 36.301 17.2745 36.405 17.2207C36.509 17.167 36.63 17.1572 36.7412 17.1933C37.0833 17.3047 37.4213 17.4281 37.7548 17.5634C37.8499 17.6019 37.9286 17.6725 37.9776 17.7632C38.0266 17.8539 38.0428 17.959 38.0233 18.0604C38.0038 18.1618 37.9499 18.2532 37.8709 18.3188C37.7918 18.3845 37.6926 18.4204 37.5902 18.4203ZM27.3473 18.0763C27.2425 18.0761 27.1411 18.0383 27.0615 17.9696C26.9818 17.9009 26.9291 17.8058 26.9126 17.7014C26.8962 17.597 26.9171 17.4901 26.9717 17.3999C27.0264 17.3097 27.1111 17.2421 27.2106 17.2092C27.5519 17.0968 27.897 16.9967 28.2452 16.9088C28.3013 16.8946 28.3597 16.8917 28.4169 16.9003C28.4742 16.9089 28.5292 16.9288 28.5788 16.9588C28.6284 16.9888 28.6717 17.0284 28.7061 17.0754C28.7406 17.1223 28.7655 17.1755 28.7795 17.2322C28.7936 17.2888 28.7965 17.3476 28.788 17.4054C28.7795 17.4631 28.7598 17.5186 28.73 17.5686C28.7002 17.6187 28.661 17.6623 28.6145 17.6971C28.568 17.7318 28.5151 17.757 28.459 17.7711C28.1309 17.8539 27.8057 17.9483 27.4841 18.0541C27.44 18.0688 27.3938 18.0763 27.3473 18.0763ZM34.5773 17.556C34.5519 17.556 34.5265 17.5538 34.5015 17.5493C34.1682 17.4911 33.833 17.4446 33.4965 17.41C33.3802 17.398 33.2734 17.3399 33.1996 17.2485C33.1257 17.1571 33.0909 17.0399 33.1028 16.9227C33.1086 16.8646 33.1258 16.8083 33.1532 16.7569C33.1807 16.7055 33.2179 16.6601 33.2628 16.6232C33.3077 16.5863 33.3593 16.5587 33.4147 16.542C33.4702 16.5253 33.5284 16.5197 33.5859 16.5257C33.9417 16.5623 34.3004 16.6121 34.6521 16.6736C34.7608 16.6925 34.8586 16.7519 34.926 16.84C34.9934 16.9281 35.0256 17.0385 35.0162 17.1494C35.0068 17.2603 34.9565 17.3636 34.8752 17.4389C34.7939 17.5142 34.6876 17.5559 34.5773 17.556ZM30.4093 17.4175C30.2964 17.4175 30.1878 17.3738 30.1059 17.2954C30.024 17.2169 29.9751 17.1098 29.9693 16.9961C29.9634 16.8824 30.001 16.7708 30.0744 16.6842C30.1478 16.5977 30.2513 16.5428 30.3636 16.531C30.7181 16.4933 31.0792 16.4676 31.4368 16.4547C31.679 16.4454 31.8843 16.6375 31.893 16.8828C31.8972 17.0006 31.8548 17.1153 31.7752 17.2016C31.6956 17.2878 31.5853 17.3387 31.4685 17.3429C31.131 17.3552 30.7904 17.3795 30.4561 17.415C30.4405 17.4167 30.4249 17.4175 30.4093 17.4175Z" fill="white"/>
<path fill-rule="evenodd" clip-rule="evenodd" d="M32.1356 46C39.8676 46 46.1356 39.732 46.1356 32C46.1356 24.268 39.8676 18 32.1356 18C24.4036 18 18.1356 24.268 18.1356 32C18.1356 39.732 24.4036 46 32.1356 46ZM30.2967 35.6922C31.7349 37.0255 33.6163 37.5519 35.2606 36.8871C36.8323 36.2516 37.8932 34.599 38.0289 32.5735L40.4806 32.7289C40.2803 35.7106 38.6283 38.1791 36.1694 39.1733C34.321 39.9206 32.2588 39.7704 30.3628 38.7509C29.4094 38.2388 28.5573 37.5362 27.8421 36.6846L25.3601 37.6881L24.4514 35.4019L26.4985 34.5742C26.4135 34.3926 26.3342 34.2097 26.2594 34.0216C26.1854 33.8355 26.1166 33.6456 26.0546 33.4575L24.0075 34.2851L23.0986 31.9986L25.5806 30.9951C25.5143 29.8809 25.6489 28.7782 25.9872 27.743C26.66 25.6851 28.0489 24.1414 29.8973 23.394C32.3561 22.3999 35.2415 23.0341 37.4286 25.0507L35.7614 26.8692C34.277 25.5012 32.3781 25.0455 30.8064 25.6809C29.162 26.3458 28.162 28.0367 28.0352 30.0026L33.2101 27.9103L34.119 30.197L28.3427 32.5324C28.4008 32.7207 28.4676 32.9113 28.5421 33.0988C28.6173 33.288 28.6987 33.4701 28.7866 33.6492L34.5628 31.3138L35.4715 33.5999L30.2967 35.6922Z" fill="white"/>
</g>
<defs>
<clipPath id="clip0_60_186">
<rect width="31.7288" height="32" fill="white" transform="translate(16.1356 16)"/>
</clipPath>
</defs>
</svg>
