<svg width="56" height="56" viewBox="0 0 56 56" fill="none" xmlns="http://www.w3.org/2000/svg">
<rect width="48" height="48" rx="4" fill="#3663EF" fill-opacity="0.2"/>
<rect x="8" y="8" width="48" height="48" rx="4" fill="#3663EF"/>
<path d="M32 18C30.134 17.9999 28.287 18.3752 26.569 19.1036C24.8511 19.832 23.2972 20.8986 22 22.24V21C22 20.7348 21.8946 20.4804 21.7071 20.2929C21.5196 20.1054 21.2652 20 21 20C20.7348 20 20.4804 20.1054 20.2929 20.2929C20.1054 20.4804 20 20.7348 20 21V25C20 25.2652 20.1054 25.5196 20.2929 25.7071C20.4804 25.8946 20.7348 26 21 26H25C25.2652 26 25.5196 25.8946 25.7071 25.7071C25.8946 25.5196 26 25.2652 26 25C26 24.7348 25.8946 24.4804 25.7071 24.2929C25.5196 24.1054 25.2652 24 25 24H23.08C24.956 21.9153 27.503 20.5535 30.2785 20.1512C33.0541 19.7489 35.8828 20.3314 38.2736 21.7976C40.6643 23.2639 42.466 25.5211 43.3657 28.1775C44.2654 30.8338 44.2063 33.7213 43.1987 36.3386C42.191 38.9559 40.2985 41.1375 37.8497 42.5047C35.401 43.8719 32.5507 44.3381 29.794 43.8226C27.0372 43.307 24.5481 41.8422 22.759 39.6824C20.9698 37.5227 19.9937 34.8045 20 32C20.0005 31.0675 20.1078 30.1381 20.32 29.23C20.3623 29.0987 20.377 28.96 20.3631 28.8228C20.3492 28.6855 20.3071 28.5526 20.2394 28.4324C20.1716 28.3123 20.0798 28.2074 19.9695 28.1244C19.8593 28.0415 19.7331 27.9822 19.5989 27.9504C19.4646 27.9185 19.3253 27.9148 19.1895 27.9395C19.0538 27.9641 18.9246 28.0166 18.8102 28.0936C18.6957 28.1705 18.5984 28.2704 18.5243 28.3868C18.4503 28.5032 18.4012 28.6337 18.38 28.77C18.127 29.828 17.9995 30.9122 18 32C18 34.7689 18.8211 37.4757 20.3594 39.778C21.8978 42.0803 24.0843 43.8747 26.6424 44.9343C29.2006 45.9939 32.0155 46.2712 34.7313 45.731C37.447 45.1908 39.9416 43.8574 41.8995 41.8995C43.8574 39.9416 45.1908 37.447 45.731 34.7313C46.2712 32.0155 45.9939 29.2006 44.9343 26.6424C43.8747 24.0843 42.0803 21.8978 39.778 20.3594C37.4757 18.8211 34.7689 18 32 18Z" fill="white"/>
<path d="M32 22C30.3797 22.001 28.7839 22.3956 27.35 23.15C27.6962 23.592 27.9115 24.1224 27.9713 24.6807C28.0311 25.239 27.9329 25.8029 27.6881 26.3082C27.4433 26.8135 27.0615 27.2399 26.5863 27.539C26.1111 27.8381 25.5615 27.9978 25 28H22.84C21.9785 29.9738 21.7773 32.173 22.2663 34.2704C22.7552 36.3678 23.9082 38.2513 25.5537 39.6406C27.1992 41.03 29.2493 41.8511 31.399 41.9816C33.5486 42.1122 35.683 41.5452 37.4845 40.3652C39.2861 39.1851 40.6585 37.455 41.3977 35.4322C42.1368 33.4094 42.2032 31.2021 41.587 29.1385C40.9707 27.0749 39.7047 25.2655 37.9774 23.9793C36.25 22.6931 34.1536 21.9989 32 22ZM34 31C34.5304 31 35.0391 31.2107 35.4142 31.5858C35.7893 31.9609 36 32.4696 36 33V35C36 35.5304 35.7893 36.0391 35.4142 36.4142C35.0391 36.7893 34.5304 37 34 37H33V38C33 38.2652 32.8946 38.5196 32.7071 38.7071C32.5196 38.8946 32.2652 39 32 39C31.7348 39 31.4804 38.8946 31.2929 38.7071C31.1053 38.5196 31 38.2652 31 38V37H29C28.7348 37 28.4804 36.8946 28.2929 36.7071C28.1053 36.5196 28 36.2652 28 36C28 35.7348 28.1053 35.4804 28.2929 35.2929C28.4804 35.1054 28.7348 35 29 35H34V33H30C29.4695 33 28.9608 32.7893 28.5858 32.4142C28.2107 32.0391 28 31.5304 28 31V29C28 28.4696 28.2107 27.9609 28.5858 27.5858C28.9608 27.2107 29.4695 27 30 27H31V26C31 25.7348 31.1053 25.4804 31.2929 25.2929C31.4804 25.1054 31.7348 25 32 25C32.2652 25 32.5196 25.1054 32.7071 25.2929C32.8946 25.4804 33 25.7348 33 26V27H35C35.2652 27 35.5196 27.1054 35.7071 27.2929C35.8946 27.4804 36 27.7348 36 28C36 28.2652 35.8946 28.5196 35.7071 28.7071C35.5196 28.8946 35.2652 29 35 29H30V31H34Z" fill="white"/>
</svg>
