<svg width="1920" height="752" viewBox="0 0 1920 752" fill="none" xmlns="http://www.w3.org/2000/svg">
<g clip-path="url(#clip0_111_24918)">
<rect width="1920" height="752" fill="#292929"/>
<g opacity="0.1">
<line x1="130.628" y1="-71" x2="130.628" y2="1215.58" stroke="#F9F9F9"/>
<line x1="212.469" y1="-71" x2="212.469" y2="1215.58" stroke="#F9F9F9"/>
<line x1="294.31" y1="-71" x2="294.31" y2="1215.58" stroke="#F9F9F9"/>
<line x1="376.152" y1="-71" x2="376.152" y2="1215.58" stroke="#F9F9F9"/>
<line x1="457.992" y1="-71" x2="457.992" y2="1215.58" stroke="#F9F9F9"/>
<line x1="539.835" y1="-71" x2="539.835" y2="1215.58" stroke="#F9F9F9"/>
<line x1="621.677" y1="-71" x2="621.677" y2="1215.58" stroke="#F9F9F9"/>
<line x1="703.517" y1="-71" x2="703.517" y2="1215.58" stroke="#F9F9F9"/>
<line x1="785.359" y1="-71" x2="785.359" y2="1215.58" stroke="#F9F9F9"/>
<line x1="867.201" y1="-71" x2="867.201" y2="1215.58" stroke="#F9F9F9"/>
<line x1="949.042" y1="-71" x2="949.042" y2="1215.58" stroke="#F9F9F9"/>
<line x1="1030.88" y1="-71" x2="1030.88" y2="1215.58" stroke="#F9F9F9"/>
<line x1="1112.72" y1="-71" x2="1112.72" y2="1215.58" stroke="#F9F9F9"/>
<line x1="1194.57" y1="-71" x2="1194.57" y2="1215.58" stroke="#F9F9F9"/>
<line x1="1276.41" y1="-71" x2="1276.41" y2="1215.58" stroke="#F9F9F9"/>
<line x1="1358.25" y1="-71" x2="1358.25" y2="1215.58" stroke="#F9F9F9"/>
<line x1="1440.09" y1="-71" x2="1440.09" y2="1215.58" stroke="#F9F9F9"/>
<line x1="1521.93" y1="-71" x2="1521.93" y2="1215.58" stroke="#F9F9F9"/>
<line x1="1603.77" y1="-71" x2="1603.77" y2="1215.58" stroke="#F9F9F9"/>
<line x1="1685.61" y1="-71" x2="1685.61" y2="1215.58" stroke="#F9F9F9"/>
<line x1="1767.46" y1="-71" x2="1767.46" y2="1215.58" stroke="#F9F9F9"/>
<line x1="2.76118e-08" y1="737.932" x2="1920" y2="737.932" stroke="#F9F9F9"/>
<line x1="2.76118e-08" y1="656.089" x2="1920" y2="656.089" stroke="#F9F9F9"/>
<line x1="2.76119e-08" y1="574.245" x2="1920" y2="574.245" stroke="#F9F9F9"/>
<line x1="2.76119e-08" y1="492.402" x2="1920" y2="492.402" stroke="#F9F9F9"/>
<line x1="2.76119e-08" y1="410.558" x2="1920" y2="410.558" stroke="#F9F9F9"/>
<line x1="2.76119e-08" y1="328.715" x2="1920" y2="328.715" stroke="#F9F9F9"/>
<line x1="2.76119e-08" y1="246.872" x2="1920" y2="246.872" stroke="#F9F9F9"/>
<line x1="2.76119e-08" y1="165.028" x2="1920" y2="165.028" stroke="#F9F9F9"/>
<line x1="2.76119e-08" y1="83.1846" x2="1920" y2="83.1846" stroke="#F9F9F9"/>
<line x1="2.76119e-08" y1="1.34082" x2="1920" y2="1.34089" stroke="#F9F9F9"/>
<circle cx="3.58879" cy="3.58879" r="3.08879" transform="matrix(-1 0 0 1 216.225 79.7285)" fill="#292929" stroke="#F9F9F9"/>
<circle cx="3.58879" cy="3.58879" r="3.08879" transform="matrix(-1 0 0 1 297.869 324.663)" fill="#292929" stroke="#F9F9F9"/>
<circle cx="3.58879" cy="3.58879" r="3.08879" transform="matrix(-1 0 0 1 215.326 571.393)" fill="#292929" stroke="#F9F9F9"/>
<circle cx="3.58879" cy="3.58879" r="3.08879" transform="matrix(-1 0 0 1 461.158 407.206)" fill="#292929" stroke="#F9F9F9"/>
<circle cx="3.58879" cy="3.58879" r="3.08879" transform="matrix(-1 0 0 1 379.514 162.271)" fill="#292929" stroke="#F9F9F9"/>
<circle cx="3.58879" cy="3.58879" r="3.08879" transform="matrix(-1 0 0 1 624.449 79.7285)" fill="#292929" stroke="#F9F9F9"/>
<circle cx="3.58879" cy="3.58879" r="3.08879" transform="matrix(-1 0 0 1 624.449 489.748)" fill="#292929" stroke="#F9F9F9"/>
<circle cx="3.58879" cy="3.58879" r="3.08879" transform="matrix(-1 0 0 1 542.805 243.916)" fill="#292929" stroke="#F9F9F9"/>
<circle cx="3.58879" cy="3.58879" r="3.08879" transform="matrix(-1 0 0 1 788.635 160.477)" fill="#292929" stroke="#F9F9F9"/>
<circle cx="3.58879" cy="3.58879" r="3.08879" transform="matrix(-1 0 0 1 870.281 407.206)" fill="#292929" stroke="#F9F9F9"/>
<circle cx="3.58879" cy="3.58879" r="3.08879" transform="matrix(-1 0 0 1 788.635 571.393)" fill="#292929" stroke="#F9F9F9"/>
<circle cx="3.58879" cy="3.58879" r="3.08879" transform="matrix(-1 0 0 1 1034.47 488.851)" fill="#292929" stroke="#F9F9F9"/>
<circle cx="3.58879" cy="3.58879" r="3.08879" transform="matrix(-1 0 0 1 1116.11 325.561)" fill="#292929" stroke="#F9F9F9"/>
<circle cx="3.58879" cy="3.58879" r="3.08879" transform="matrix(-1 0 0 1 952.822 243.019)" fill="#292929" stroke="#F9F9F9"/>
<circle cx="3.58879" cy="3.58879" r="3.08879" transform="matrix(-1 0 0 1 1279.4 162.271)" fill="#292929" stroke="#F9F9F9"/>
<circle cx="3.58879" cy="3.58879" r="3.08879" transform="matrix(-1 0 0 1 1197.76 571.393)" fill="#292929" stroke="#F9F9F9"/>
<circle cx="3.58879" cy="3.58879" r="3.08879" transform="matrix(-1 0 0 1 1361.94 407.206)" fill="#292929" stroke="#F9F9F9"/>
<circle cx="3.58879" cy="3.58879" r="3.08879" transform="matrix(-1 0 0 1 1689.42 243.916)" fill="#292929" stroke="#F9F9F9"/>
<circle cx="3.58879" cy="3.58879" r="3.08879" transform="matrix(-1 0 0 1 1771.07 488.851)" fill="#292929" stroke="#F9F9F9"/>
<circle cx="3.58879" cy="3.58879" r="3.08879" transform="matrix(-1 0 0 1 1525.23 79.7285)" fill="#292929" stroke="#F9F9F9"/>
</g>
</g>
<defs>
<clipPath id="clip0_111_24918">
<rect width="1920" height="752" fill="white"/>
</clipPath>
</defs>
</svg>
